<?xml version="1.0" encoding="UTF-8"?>
<svg width="221px" height="24px" viewBox="0 0 221 24" version="1.1" xmlns="http://www.w3.org/2000/svg" xmlns:xlink="http://www.w3.org/1999/xlink">
    <!-- Generator: Sketch 57.1 (83088) - https://sketch.com -->
    <title>Country</title>
    <desc>Created with Sketch.</desc>
    <g id="Country" stroke="none" stroke-width="1" fill="none" fill-rule="evenodd">
        <g id="Group-A" transform="translate(1.152000, 1.344000)"></g>
        <g id="Group-B" transform="translate(1.224000, 0.480000)"></g>
        <g id="Group-C" transform="translate(1.656000, 0.528000)" fill="#121212" fill-rule="nonzero">
            <path d="M1.08,3.288 L19.224,3.288 L20.568,4.488 C19.656,6.312 18.768,7.824 17.928,9.024 C16.824,10.512 15.576,11.808 14.136,12.936 L12.216,11.088 C14.328,9.432 15.864,7.656 16.824,5.76 L1.08,5.76 L1.08,3.288 Z M8.664,7.536 L11.352,7.536 L11.352,10.776 C11.352,13.464 10.824,15.696 9.768,17.472 C8.664,19.296 6.912,20.784 4.488,21.912 L2.808,19.848 C4.92,18.84 6.408,17.64 7.32,16.296 C8.208,14.904 8.664,13.08 8.664,10.776 L8.664,7.536 Z M28.44,6.168 C30.864,7.2 33.192,8.424 35.448,9.816 C36.648,7.584 37.68,5.016 38.52,2.112 L41.208,2.76 C40.296,5.952 39.144,8.808 37.752,11.304 C40.176,12.984 42.504,14.88 44.712,16.992 L42.864,18.936 C40.704,16.92 38.52,15.144 36.312,13.608 L36.024,13.992 C33.528,17.448 30.408,20.04 26.664,21.768 L24.936,19.704 C28.512,18.072 31.464,15.648 33.792,12.432 L34.032,12.096 C31.776,10.68 29.52,9.48 27.216,8.496 L28.44,6.168 Z M62.784,2.64 L65.472,2.64 L65.472,10.512 C65.472,13.536 64.68,15.984 63.144,17.904 C61.56,19.848 59.16,21.216 55.944,22.008 L54.696,19.632 C57.648,18.936 59.784,17.76 61.08,16.104 C62.208,14.64 62.784,12.696 62.784,10.296 L62.784,2.64 Z M51.216,3.144 L53.904,3.144 L53.904,14.784 L51.216,14.784 L51.216,3.144 Z M73.872,5.808 L81.12,5.808 C81.192,4.536 81.24,3.144 81.264,1.632 L83.904,1.632 C83.88,3.192 83.832,4.584 83.784,5.808 L91.584,5.808 L91.224,14.712 C91.128,17.088 90.768,18.768 90.144,19.752 C89.4,20.904 88.128,21.48 86.328,21.48 C85.248,21.48 84.144,21.384 83.04,21.192 L83.04,18.72 C84.264,18.96 85.344,19.08 86.304,19.08 C87.048,19.08 87.624,18.648 88.008,17.832 C88.392,17.04 88.608,15.864 88.68,14.328 L88.92,8.28 L83.592,8.28 C83.52,8.832 83.448,9.336 83.4,9.792 C82.968,12.384 82.152,14.568 80.952,16.368 C79.56,18.384 77.496,20.136 74.784,21.648 L73.032,19.68 C74.616,18.792 75.936,17.832 77.016,16.824 C78.24,15.648 79.152,14.376 79.752,13.032 C80.232,11.856 80.616,10.272 80.88,8.28 L73.872,8.28 L73.872,5.808 Z" id="America"></path>
        </g>
    </g>
</svg>