<?xml version="1.0" encoding="UTF-8"?>
<svg width="221px" height="24px" viewBox="0 0 221 24" version="1.1" xmlns="http://www.w3.org/2000/svg" xmlns:xlink="http://www.w3.org/1999/xlink">
    <!-- Generator: Sketch 57.1 (83088) - https://sketch.com -->
    <title>Country</title>
    <desc>Created with Sketch.</desc>
    <g id="Country" stroke="none" stroke-width="1" fill="none" fill-rule="evenodd">
        <g id="Group-A" transform="translate(1.152000, 1.344000)"></g>
        <g id="Group-B" transform="translate(1.224000, 0.480000)"></g>
        <g id="Group-C" transform="translate(1.656000, 0.528000)" fill="#121212" fill-rule="nonzero">
            <path d="M1.08,3.288 L19.224,3.288 L20.568,4.488 C19.656,6.312 18.768,7.824 17.928,9.024 C16.824,10.512 15.576,11.808 14.136,12.936 L12.216,11.088 C14.328,9.432 15.864,7.656 16.824,5.76 L1.08,5.76 L1.08,3.288 Z M8.664,7.536 L11.352,7.536 L11.352,10.776 C11.352,13.464 10.824,15.696 9.768,17.472 C8.664,19.296 6.912,20.784 4.488,21.912 L2.808,19.848 C4.92,18.84 6.408,17.64 7.32,16.296 C8.208,14.904 8.664,13.08 8.664,10.776 L8.664,7.536 Z M35.112,2.688 L37.8,2.688 L37.8,17.784 C40.176,15.984 42.216,13.8 43.944,11.256 L46.104,12.768 C44.928,14.448 43.512,16.08 41.88,17.616 C40.104,19.248 38.376,20.496 36.744,21.312 L35.112,20.424 L35.112,2.688 Z M28.272,3.216 L30.96,3.216 L30.96,10.608 C30.96,13.32 30.576,15.504 29.856,17.136 C29.04,18.888 27.624,20.496 25.584,21.936 L23.88,19.944 C25.56,18.696 26.736,17.352 27.384,15.96 C27.96,14.664 28.272,12.864 28.272,10.608 L28.272,3.216 Z M67.584,0.456 C68.736,1.488 69.624,2.568 70.248,3.672 L68.832,4.704 C68.136,3.504 67.296,2.424 66.288,1.464 L67.584,0.456 Z M64.992,1.512 C66.072,2.472 66.96,3.576 67.632,4.776 L66.24,5.76 C65.568,4.584 64.704,3.504 63.672,2.52 L64.992,1.512 Z M53.616,1.68 L56.304,1.68 C56.256,3.696 56.208,5.664 56.184,7.536 L67.224,6 L68.928,7.248 C66.984,10.632 64.488,13.56 61.44,16.008 L59.664,14.088 C61.728,12.408 63.48,10.608 64.896,8.736 L56.16,10.032 C56.112,12.528 56.112,14.904 56.112,17.112 C56.112,17.88 56.472,18.408 57.192,18.696 C57.768,18.912 58.848,19.032 60.432,19.032 C62.976,19.032 65.472,18.864 67.968,18.576 L67.968,21.072 C65.04,21.336 62.544,21.48 60.432,21.48 C57.864,21.48 56.112,21.216 55.152,20.736 C54,20.112 53.424,18.96 53.424,17.232 C53.424,15.072 53.424,12.816 53.472,10.416 L48.384,11.16 L47.952,8.712 L53.496,7.92 C53.52,5.904 53.568,3.84 53.616,1.68 Z M73.92,2.856 C76.272,4.056 78.816,5.64 81.552,7.632 L79.872,9.672 C77.184,7.752 74.76,6.24 72.6,5.112 L73.92,2.856 Z M90.024,6.216 L92.52,7.176 C90.84,10.992 88.632,14.112 85.872,16.56 C82.896,19.128 79.32,20.928 75.096,21.936 L73.872,19.56 C77.544,18.696 80.808,17.088 83.688,14.688 C86.448,12.336 88.56,9.528 90.024,6.216 Z M112.512,1.896 L113.928,4.2 C112.032,4.848 110.04,5.4 107.976,5.856 L107.976,9.696 L116.592,9.696 L116.592,12.168 L107.976,12.168 C107.88,14.376 107.232,16.32 106.008,18 C104.856,19.536 103.2,20.856 101.04,21.96 L99.264,19.872 C101.04,18.936 102.432,17.88 103.44,16.704 C104.568,15.36 105.192,13.848 105.288,12.168 L96.408,12.168 L96.408,9.696 L105.288,9.696 L105.288,6.36 C103.128,6.72 100.848,6.984 98.496,7.128 L97.848,4.704 C100.536,4.512 103.152,4.2 105.648,3.72 C108.024,3.24 110.304,2.64 112.512,1.896 Z M121.92,2.856 C124.272,4.056 126.816,5.64 129.552,7.632 L127.872,9.672 C125.184,7.752 122.76,6.24 120.6,5.112 L121.92,2.856 Z M138.024,6.216 L140.52,7.176 C138.84,10.992 136.632,14.112 133.872,16.56 C130.896,19.128 127.32,20.928 123.096,21.936 L121.872,19.56 C125.544,18.696 128.808,17.088 131.688,14.688 C134.448,12.336 136.56,9.528 138.024,6.216 Z" id="Argentina"></path>
        </g>
    </g>
</svg>