<?xml version="1.0" encoding="UTF-8"?>
<svg width="221px" height="24px" viewBox="0 0 221 24" version="1.1" xmlns="http://www.w3.org/2000/svg" xmlns:xlink="http://www.w3.org/1999/xlink">
    <!-- Generator: Sketch 57.1 (83088) - https://sketch.com -->
    <title>Country</title>
    <desc>Created with Sketch.</desc>
    <g id="Country" stroke="none" stroke-width="1" fill="none" fill-rule="evenodd">
        <g id="Group-A" transform="translate(1.152000, 1.344000)"></g>
        <g id="Group-B" transform="translate(1.224000, 0.480000)"></g>
        <g id="Group-C" transform="translate(1.656000, 0.528000)"></g>
        <g id="Group-D" transform="translate(2.000000, 0.000000)" fill="#121212" fill-rule="nonzero">
            <path d="M11.896,2.256 L14.608,2.256 L14.608,6.336 L19.984,6.336 L19.984,8.808 L14.608,8.808 L14.608,19.32 C14.608,21.24 13.552,22.224 11.464,22.224 C10.384,22.224 9.232,22.128 8.008,21.984 L8.008,19.512 C9.496,19.752 10.6,19.872 11.32,19.872 C11.704,19.872 11.896,19.656 11.896,19.248 L11.896,11.304 C11.128,12.648 9.76,14.232 7.768,16.08 C5.752,17.904 3.76,19.416 1.744,20.592 L0.04,18.48 C2.248,17.184 4.24,15.744 6.016,14.184 C7.888,12.528 9.544,10.728 10.984,8.808 L0.76,8.808 L0.76,6.336 L11.896,6.336 L11.896,2.256 Z M24.784,11.112 L43.24,11.112 L43.24,13.584 L24.784,13.584 L24.784,11.112 Z M58.696,15.432 C56.152,18.12 52.888,20.448 48.904,22.416 L47.272,20.256 C53.872,17.184 58.552,12.672 61.336,6.72 L49.84,6.72 L49.84,4.248 L63.328,4.248 L64.936,5.304 C63.64,8.424 62.104,11.136 60.376,13.44 C61.84,14.448 63.16,15.408 64.36,16.32 C66.4,17.88 68.008,19.296 69.184,20.592 L67.096,22.32 C65.872,21.024 64.36,19.656 62.536,18.24 C61.36,17.328 60.088,16.392 58.696,15.432 Z M77.224,2.28 L79.912,2.28 L79.912,9.624 C81.832,9.96 83.752,10.44 85.672,11.088 C87.424,11.664 89.176,12.36 90.952,13.2 L89.8,15.432 C88.216,14.712 86.656,14.088 85.096,13.56 C83.344,12.984 81.616,12.528 79.912,12.216 L79.912,22.488 L77.224,22.488 L77.224,2.28 Z M99.424,3.552 L112.936,3.552 L112.936,6.024 L99.424,6.024 L99.424,3.552 Z M97.408,8.568 L113.968,8.568 L115.384,9.648 C114.28,13.104 112.84,15.792 111.016,17.664 C108.904,19.8 105.952,21.36 102.136,22.32 L100.792,19.968 C103.912,19.2 106.36,18.072 108.184,16.608 C109.888,15.216 111.208,13.344 112.12,11.04 L97.408,11.04 L97.408,8.568 Z M134.44,3.168 L137.128,3.168 L137.128,11.04 C137.128,14.064 136.336,16.512 134.8,18.432 C133.216,20.376 130.816,21.744 127.6,22.536 L126.352,20.16 C129.304,19.464 131.44,18.288 132.736,16.632 C133.864,15.168 134.44,13.224 134.44,10.824 L134.44,3.168 Z M122.872,3.672 L125.56,3.672 L125.56,15.312 L122.872,15.312 L122.872,3.672 Z M144.736,3.816 L162.88,3.816 L164.224,5.016 C163.312,6.84 162.424,8.352 161.584,9.552 C160.48,11.04 159.232,12.336 157.792,13.464 L155.872,11.616 C157.984,9.96 159.52,8.184 160.48,6.288 L144.736,6.288 L144.736,3.816 Z M152.32,8.064 L155.008,8.064 L155.008,11.304 C155.008,13.992 154.48,16.224 153.424,18 C152.32,19.824 150.568,21.312 148.144,22.44 L146.464,20.376 C148.576,19.368 150.064,18.168 150.976,16.824 C151.864,15.432 152.32,13.608 152.32,11.304 L152.32,8.064 Z" id="Australia"></path>
        </g>
    </g>
</svg>