<?xml version="1.0" encoding="UTF-8"?>
<svg width="221px" height="24px" viewBox="0 0 221 24" version="1.1" xmlns="http://www.w3.org/2000/svg" xmlns:xlink="http://www.w3.org/1999/xlink">
    <!-- Generator: Sketch 57.1 (83088) - https://sketch.com -->
    <title>Country</title>
    <desc>Created with Sketch.</desc>
    <g id="Country" stroke="none" stroke-width="1" fill="none" fill-rule="evenodd">
        <g id="Group-A" transform="translate(1.152000, 1.344000)"></g>
        <g id="Group-B" transform="translate(1.224000, 0.480000)" fill="#121212" fill-rule="nonzero">
            <path d="M2.304,5.856 L9.552,5.856 C9.624,4.584 9.672,3.192 9.696,1.68 L12.336,1.68 C12.312,3.24 12.264,4.632 12.216,5.856 L20.016,5.856 L19.656,14.76 C19.56,17.136 19.2,18.816 18.576,19.8 C17.832,20.952 16.56,21.528 14.76,21.528 C13.68,21.528 12.576,21.432 11.472,21.24 L11.472,18.768 C12.696,19.008 13.776,19.128 14.736,19.128 C15.48,19.128 16.056,18.696 16.44,17.88 C16.824,17.088 17.04,15.912 17.112,14.376 L17.352,8.328 L12.024,8.328 C11.952,8.88 11.88,9.384 11.832,9.84 C11.4,12.432 10.584,14.616 9.384,16.416 C7.992,18.432 5.928,20.184 3.216,21.696 L1.464,19.728 C3.048,18.84 4.368,17.88 5.448,16.872 C6.672,15.696 7.584,14.424 8.184,13.08 C8.664,11.904 9.048,10.32 9.312,8.328 L2.304,8.328 L2.304,5.856 Z M24.36,7.776 L33.888,7.776 L33.888,1.704 L36.576,1.704 L36.576,7.776 L45.192,7.776 L45.192,10.248 L36.576,10.248 L36.576,10.68 C36.576,13.464 36.024,15.768 34.92,17.64 C33.816,19.512 32.088,21.048 29.688,22.272 L27.912,20.136 C30.048,19.08 31.584,17.808 32.52,16.344 C33.432,14.856 33.888,12.984 33.888,10.68 L33.888,10.248 L24.36,10.248 L24.36,7.776 Z M68.04,-3.55271368e-15 C69.192,1.032 70.08,2.112 70.704,3.216 L69.288,4.248 C68.592,3.048 67.752,1.968 66.744,1.008 L68.04,-3.55271368e-15 Z M64.872,0.024 C65.952,0.984 66.84,2.088 67.512,3.288 L66.12,4.272 C65.448,3.096 64.584,2.016 63.552,1.032 L64.872,0.024 Z M56.472,1.44 L58.944,2.232 C58.704,2.904 58.44,3.576 58.152,4.248 L65.76,4.248 L67.32,5.088 C66.672,8.928 65.184,12.288 62.856,15.192 C60.408,18.216 57.264,20.472 53.4,21.96 L51.984,19.704 C55.248,18.456 57.96,16.704 60.12,14.424 C60.144,14.376 60.168,14.352 60.192,14.328 C59.616,13.92 59.016,13.536 58.44,13.176 C57.288,12.432 56.112,11.784 54.912,11.208 L56.52,9.288 C57.696,9.888 58.872,10.536 60.024,11.232 C60.6,11.592 61.2,11.976 61.776,12.36 C62.952,10.632 63.792,8.76 64.32,6.72 L56.856,6.72 C56.472,7.344 56.064,7.944 55.632,8.544 C54.288,10.344 52.68,11.952 50.808,13.392 L48.96,11.64 C50.784,10.2 52.32,8.64 53.568,6.984 C54.84,5.256 55.8,3.408 56.472,1.44 Z" id="canada"></path>
        </g>
    </g>
</svg>