<?xml version="1.0" encoding="UTF-8"?>
<svg width="221px" height="24px" viewBox="0 0 221 24" version="1.1" xmlns="http://www.w3.org/2000/svg" xmlns:xlink="http://www.w3.org/1999/xlink">
    <!-- Generator: Sketch 57.1 (83088) - https://sketch.com -->
    <title>Country</title>
    <desc>Created with Sketch.</desc>
    <g id="Country" stroke="none" stroke-width="1" fill="none" fill-rule="evenodd">
        <g id="Group-A" transform="translate(1.152000, 1.344000)"></g>
        <g id="Group-B" transform="translate(1.224000, 0.480000)"></g>
        <g id="Group-C" transform="translate(1.656000, 0.528000)" fill="#121212" fill-rule="nonzero">
            <path d="M16.728,1.608 L18.72,3.36 C16.848,5.352 14.664,7.272 12.12,9.096 L12.12,21.696 L9.432,21.696 L9.432,10.896 C6.792,12.528 4.104,13.92 1.368,15.072 L1.13686838e-13,12.816 C2.976,11.568 6.024,9.912 9.144,7.824 C12.264,5.712 14.784,3.648 16.728,1.608 Z M25.92,2.856 C28.272,4.056 30.816,5.64 33.552,7.632 L31.872,9.672 C29.184,7.752 26.76,6.24 24.6,5.112 L25.92,2.856 Z M42.024,6.216 L44.52,7.176 C42.84,10.992 40.632,14.112 37.872,16.56 C34.896,19.128 31.32,20.928 27.096,21.936 L25.872,19.56 C29.544,18.696 32.808,17.088 35.688,14.688 C38.448,12.336 40.56,9.528 42.024,6.216 Z M67.608,2.84217094e-14 C68.76,1.032 69.648,2.112 70.272,3.216 L68.856,4.248 C68.16,3.048 67.32,1.968 66.312,1.008 L67.608,2.84217094e-14 Z M64.032,0.048 C65.112,1.008 66,2.112 66.672,3.312 L65.28,4.296 C64.608,3.12 63.744,2.04 62.712,1.056 L64.032,0.048 Z M56.04,1.488 L58.512,2.28 C58.224,3.072 57.912,3.84 57.576,4.56 L65.16,4.56 L66.72,5.376 C66,9.432 64.512,12.84 62.208,15.624 C59.904,18.336 56.856,20.424 53.04,21.912 L51.624,19.656 C54.72,18.504 57.24,16.968 59.208,15.048 C61.416,12.888 62.904,10.224 63.672,7.056 L56.256,7.056 C55.92,7.56 55.608,8.04 55.272,8.496 C54,10.176 52.368,11.808 50.352,13.344 L48.504,11.592 C50.328,10.152 51.888,8.616 53.136,6.984 C54.408,5.256 55.368,3.432 56.04,1.488 Z M75.768,3.024 L89.28,3.024 L89.28,5.496 L75.768,5.496 L75.768,3.024 Z M73.752,8.04 L90.312,8.04 L91.728,9.12 C90.624,12.576 89.184,15.264 87.36,17.136 C85.248,19.272 82.296,20.832 78.48,21.792 L77.136,19.44 C80.256,18.672 82.704,17.544 84.528,16.08 C86.232,14.688 87.552,12.816 88.464,10.512 L73.752,10.512 L73.752,8.04 Z M97.92,2.856 C100.272,4.056 102.816,5.64 105.552,7.632 L103.872,9.672 C101.184,7.752 98.76,6.24 96.6,5.112 L97.92,2.856 Z M114.024,6.216 L116.52,7.176 C114.84,10.992 112.632,14.112 109.872,16.56 C106.896,19.128 103.32,20.928 99.096,21.936 L97.872,19.56 C101.544,18.696 104.808,17.088 107.688,14.688 C110.448,12.336 112.56,9.528 114.024,6.216 Z M137.328,1.848 C138.48,2.856 139.368,3.936 139.992,5.064 L138.576,6.096 C137.88,4.872 137.04,3.792 136.032,2.856 L137.328,1.848 Z M134.904,3.528 C135.984,4.488 136.872,5.592 137.544,6.792 L136.152,7.776 C135.48,6.576 134.616,5.496 133.584,4.536 L134.904,3.528 Z M125.568,1.752 L128.256,1.752 L128.256,9.096 C130.176,9.432 132.096,9.912 134.016,10.56 C135.768,11.136 137.52,11.832 139.296,12.672 L138.144,14.904 C136.56,14.184 135,13.56 133.44,13.032 C131.688,12.456 129.96,12 128.256,11.688 L128.256,21.96 L125.568,21.96 L125.568,1.752 Z" id="England"></path>
        </g>
    </g>
</svg>