<?xml version="1.0" encoding="UTF-8"?>
<svg width="221px" height="24px" viewBox="0 0 221 24" version="1.1" xmlns="http://www.w3.org/2000/svg" xmlns:xlink="http://www.w3.org/1999/xlink">
    <!-- Generator: Sketch 57.1 (83088) - https://sketch.com -->
    <title>Country</title>
    <desc>Created with Sketch.</desc>
    <g id="Country" stroke="none" stroke-width="1" fill="none" fill-rule="evenodd">
        <g id="Group-A" transform="translate(1.152000, 1.344000)"></g>
        <g id="Group-B" transform="translate(1.224000, 0.480000)"></g>
        <g id="Group-C" transform="translate(1.656000, 0.528000)"></g>
        <g id="Group-D" transform="translate(2.000000, 0.000000)" fill="#121212" fill-rule="nonzero">
            <path d="M0.088,4.584 L17.176,4.584 L18.52,5.616 C17.56,9.576 15.904,12.96 13.6,15.768 C11.248,18.6 8.176,20.856 4.432,22.488 L2.704,20.424 C5.776,19.08 8.32,17.376 10.384,15.36 C12.712,13.032 14.392,10.272 15.4,7.056 L0.088,7.056 L0.088,4.584 Z M38.488,6.648 L40.456,8.448 C38.92,9.984 37.216,11.4 35.368,12.696 L35.368,21.888 L32.8,21.888 L32.8,14.304 C30.976,15.36 29.008,16.32 26.92,17.184 L25.504,14.976 C27.88,14.016 30.256,12.768 32.632,11.256 C34.984,9.744 36.952,8.208 38.488,6.648 Z M65.92,0.864 C67.072,1.896 67.96,2.976 68.584,4.08 L67.168,5.112 C66.472,3.912 65.632,2.832 64.624,1.872 L65.92,0.864 Z M63.52,2.472 C64.6,3.432 65.488,4.536 66.16,5.736 L64.768,6.72 C64.096,5.544 63.232,4.464 62.2,3.48 L63.52,2.472 Z M51.232,2.928 C54.232,3.72 56.8,4.776 58.936,6.12 L57.472,8.208 C55.6,7.056 53.128,6.072 50.104,5.28 L51.232,2.928 Z M65.512,7.368 L68.008,8.328 C66.496,11.736 64.312,14.64 61.48,17.088 C58.384,19.728 54.784,21.504 50.704,22.464 L49.48,20.016 C53.224,19.152 56.536,17.544 59.44,15.216 C62.176,12.984 64.192,10.368 65.512,7.368 Z M49.12,8.208 C51.664,8.808 54.232,9.816 56.8,11.256 L55.408,13.512 C53.296,12.288 50.848,11.304 48.016,10.56 L49.12,8.208 Z M72.784,11.112 L91.24,11.112 L91.24,13.584 L72.784,13.584 L72.784,11.112 Z" id="Fiji"></path>
        </g>
    </g>
</svg>