<?xml version="1.0" encoding="UTF-8"?>
<svg width="221px" height="24px" viewBox="0 0 221 24" version="1.1" xmlns="http://www.w3.org/2000/svg" xmlns:xlink="http://www.w3.org/1999/xlink">
    <!-- Generator: Sketch 57.1 (83088) - https://sketch.com -->
    <title>Country</title>
    <desc>Created with Sketch.</desc>
    <g id="Country" stroke="none" stroke-width="1" fill="none" fill-rule="evenodd">
        <g id="Group-A" transform="translate(1.152000, 1.344000)"></g>
        <g id="Group-B" transform="translate(1.224000, 0.480000)"></g>
        <g id="Group-C" transform="translate(1.656000, 0.528000)" fill="#121212" fill-rule="nonzero">
            <path d="M0.432,4.056 L17.52,4.056 L18.864,5.088 C17.904,9.048 16.248,12.432 13.944,15.24 C11.592,18.072 8.52,20.328 4.776,21.96 L3.048,19.896 C6.12,18.552 8.664,16.848 10.728,14.832 C13.056,12.504 14.736,9.744 15.744,6.528 L0.432,6.528 L0.432,4.056 Z M27.768,3.024 L41.28,3.024 L41.28,5.496 L27.768,5.496 L27.768,3.024 Z M25.752,8.04 L42.312,8.04 L43.728,9.12 C42.624,12.576 41.184,15.264 39.36,17.136 C37.248,19.272 34.296,20.832 30.48,21.792 L29.136,19.44 C32.256,18.672 34.704,17.544 36.528,16.08 C38.232,14.688 39.552,12.816 40.464,10.512 L25.752,10.512 L25.752,8.04 Z M49.92,2.856 C52.272,4.056 54.816,5.64 57.552,7.632 L55.872,9.672 C53.184,7.752 50.76,6.24 48.6,5.112 L49.92,2.856 Z M66.024,6.216 L68.52,7.176 C66.84,10.992 64.632,14.112 61.872,16.56 C58.896,19.128 55.32,20.928 51.096,21.936 L49.872,19.56 C53.544,18.696 56.808,17.088 59.688,14.688 C62.448,12.336 64.56,9.528 66.024,6.216 Z M83.04,14.904 C80.496,17.592 77.232,19.92 73.248,21.888 L71.616,19.728 C78.216,16.656 82.896,12.144 85.68,6.192 L74.184,6.192 L74.184,3.72 L87.672,3.72 L89.28,4.776 C87.984,7.896 86.448,10.608 84.72,12.912 C86.184,13.92 87.504,14.88 88.704,15.792 C90.744,17.352 92.352,18.768 93.528,20.064 L91.44,21.792 C90.216,20.496 88.704,19.128 86.88,17.712 C85.704,16.8 84.432,15.864 83.04,14.904 Z" id="France"></path>
        </g>
    </g>
</svg>