<?xml version="1.0" encoding="UTF-8"?>
<svg width="221px" height="24px" viewBox="0 0 221 24" version="1.1" xmlns="http://www.w3.org/2000/svg" xmlns:xlink="http://www.w3.org/1999/xlink">
    <!-- Generator: Sketch 57.1 (83088) - https://sketch.com -->
    <title>Country</title>
    <desc>Created with Sketch.</desc>
    <g id="Country" stroke="none" stroke-width="1" fill="none" fill-rule="evenodd">
        <g id="Group-A" transform="translate(1.152000, 1.344000)"></g>
        <g id="Group-B" transform="translate(1.224000, 0.480000)"></g>
        <g id="Group-C" transform="translate(1.656000, 0.528000)"></g>
        <g id="Group-D" transform="translate(2.000000, 0.000000)" fill="#121212" fill-rule="nonzero">
            <path d="M17.92,0.864 C19.072,1.896 19.96,2.976 20.584,4.08 L19.168,5.112 C18.472,3.912 17.632,2.832 16.624,1.872 L17.92,0.864 Z M15.52,2.472 C16.6,3.432 17.488,4.536 18.16,5.736 L16.768,6.72 C16.096,5.544 15.232,4.464 14.2,3.48 L15.52,2.472 Z M3.232,2.928 C6.232,3.72 8.8,4.776 10.936,6.12 L9.472,8.208 C7.6,7.056 5.128,6.072 2.104,5.28 L3.232,2.928 Z M17.512,7.368 L20.008,8.328 C18.496,11.736 16.312,14.64 13.48,17.088 C10.384,19.728 6.784,21.504 2.704,22.464 L1.48,20.016 C5.224,19.152 8.536,17.544 11.44,15.216 C14.176,12.984 16.192,10.368 17.512,7.368 Z M1.12,8.208 C3.664,8.808 6.232,9.816 8.8,11.256 L7.408,13.512 C5.296,12.288 2.848,11.304 0.016,10.56 L1.12,8.208 Z M27.664,8.832 L40.576,8.832 L40.576,21.144 L27.424,21.144 L27.424,18.744 L37.96,18.744 L37.96,16.176 L27.976,16.176 L27.976,13.776 L37.96,13.776 L37.96,11.232 L27.664,11.232 L27.664,8.832 Z M48.784,11.112 L67.24,11.112 L67.24,13.584 L48.784,13.584 L48.784,11.112 Z M89.92,0.864 C91.072,1.896 91.96,2.976 92.584,4.08 L91.168,5.112 C90.472,3.912 89.632,2.832 88.624,1.872 L89.92,0.864 Z M87.52,2.472 C88.6,3.432 89.488,4.536 90.16,5.736 L88.768,6.72 C88.096,5.544 87.232,4.464 86.2,3.48 L87.52,2.472 Z M75.232,2.928 C78.232,3.72 80.8,4.776 82.936,6.12 L81.472,8.208 C79.6,7.056 77.128,6.072 74.104,5.28 L75.232,2.928 Z M89.512,7.368 L92.008,8.328 C90.496,11.736 88.312,14.64 85.48,17.088 C82.384,19.728 78.784,21.504 74.704,22.464 L73.48,20.016 C77.224,19.152 80.536,17.544 83.44,15.216 C86.176,12.984 88.192,10.368 89.512,7.368 Z M73.12,8.208 C75.664,8.808 78.232,9.816 80.8,11.256 L79.408,13.512 C77.296,12.288 74.848,11.304 72.016,10.56 L73.12,8.208 Z M96.736,3.816 L114.88,3.816 L116.224,5.016 C115.312,6.84 114.424,8.352 113.584,9.552 C112.48,11.04 111.232,12.336 109.792,13.464 L107.872,11.616 C109.984,9.96 111.52,8.184 112.48,6.288 L96.736,6.288 L96.736,3.816 Z M104.32,8.064 L107.008,8.064 L107.008,11.304 C107.008,13.992 106.48,16.224 105.424,18 C104.32,19.824 102.568,21.312 100.144,22.44 L98.464,20.376 C100.576,19.368 102.064,18.168 102.976,16.824 C103.864,15.432 104.32,13.608 104.32,11.304 L104.32,8.064 Z" id="Georgia"></path>
        </g>
    </g>
</svg>