<?xml version="1.0" encoding="UTF-8"?>
<svg width="221px" height="24px" viewBox="0 0 221 24" version="1.1" xmlns="http://www.w3.org/2000/svg" xmlns:xlink="http://www.w3.org/1999/xlink">
    <!-- Generator: Sketch 57.1 (83088) - https://sketch.com -->
    <title>Country</title>
    <desc>Created with Sketch.</desc>
    <g id="Country" stroke="none" stroke-width="1" fill="none" fill-rule="evenodd">
        <path d="M2.736,3.816 L20.88,3.816 L22.224,5.016 C21.312,6.84 20.424,8.352 19.584,9.552 C18.48,11.04 17.232,12.336 15.792,13.464 L13.872,11.616 C15.984,9.96 17.52,8.184 18.48,6.288 L2.736,6.288 L2.736,3.816 Z M10.32,8.064 L13.008,8.064 L13.008,11.304 C13.008,13.992 12.48,16.224 11.424,18 C10.32,19.824 8.568,21.312 6.144,22.44 L4.464,20.376 C6.576,19.368 8.064,18.168 8.976,16.824 C9.864,15.432 10.32,13.608 10.32,11.304 L10.32,8.064 Z M42.384,2.136 L44.376,3.888 C42.504,5.88 40.32,7.8 37.776,9.624 L37.776,22.224 L35.088,22.224 L35.088,11.424 C32.448,13.056 29.76,14.448 27.024,15.6 L25.656,13.344 C28.632,12.096 31.68,10.44 34.8,8.352 C37.92,6.24 40.44,4.176 42.384,2.136 Z M60.768,3.216 L63.456,3.216 L63.456,18.312 C65.832,16.512 67.872,14.328 69.6,11.784 L71.76,13.296 C70.584,14.976 69.168,16.608 67.536,18.144 C65.76,19.776 64.032,21.024 62.4,21.84 L60.768,20.952 L60.768,3.216 Z M53.928,3.744 L56.616,3.744 L56.616,11.136 C56.616,13.848 56.232,16.032 55.512,17.664 C54.696,19.416 53.28,21.024 51.24,22.464 L49.536,20.472 C51.216,19.224 52.392,17.88 53.04,16.488 C53.616,15.192 53.928,13.392 53.928,11.136 L53.928,3.744 Z M77.424,3.552 L90.936,3.552 L90.936,6.024 L77.424,6.024 L77.424,3.552 Z M75.408,8.568 L91.968,8.568 L93.384,9.648 C92.28,13.104 90.84,15.792 89.016,17.664 C86.904,19.8 83.952,21.36 80.136,22.32 L78.792,19.968 C81.912,19.2 84.36,18.072 86.184,16.608 C87.888,15.216 89.208,13.344 90.12,11.04 L75.408,11.04 L75.408,8.568 Z M99.576,3.384 C101.928,4.584 104.472,6.168 107.208,8.16 L105.528,10.2 C102.84,8.28 100.416,6.768 98.256,5.64 L99.576,3.384 Z M115.68,6.744 L118.176,7.704 C116.496,11.52 114.288,14.64 111.528,17.088 C108.552,19.656 104.976,21.456 100.752,22.464 L99.528,20.088 C103.2,19.224 106.464,17.616 109.344,15.216 C112.104,12.864 114.216,10.056 115.68,6.744 Z M138.984,2.376 C140.136,3.384 141.024,4.464 141.648,5.592 L140.232,6.624 C139.536,5.4 138.696,4.32 137.688,3.384 L138.984,2.376 Z M136.56,4.056 C137.64,5.016 138.528,6.12 139.2,7.32 L137.808,8.304 C137.136,7.104 136.272,6.024 135.24,5.064 L136.56,4.056 Z M127.224,2.28 L129.912,2.28 L129.912,9.624 C131.832,9.96 133.752,10.44 135.672,11.088 C137.424,11.664 139.176,12.36 140.952,13.2 L139.8,15.432 C138.216,14.712 136.656,14.088 135.096,13.56 C133.344,12.984 131.616,12.528 129.912,12.216 L129.912,22.488 L127.224,22.488 L127.224,2.28 Z" id="ireland" fill="#121212" fill-rule="nonzero"></path>
    </g>
</svg>