<?xml version="1.0" encoding="UTF-8"?>
<svg width="221px" height="24px" viewBox="0 0 221 24" version="1.1" xmlns="http://www.w3.org/2000/svg" xmlns:xlink="http://www.w3.org/1999/xlink">
    <!-- Generator: Sketch 57.1 (83088) - https://sketch.com -->
    <title>Country</title>
    <desc>Created with Sketch.</desc>
    <g id="Country" stroke="none" stroke-width="1" fill="none" fill-rule="evenodd">
        <g id="Group-A" transform="translate(1.152000, 1.344000)"></g>
        <g id="Group-B" transform="translate(1.224000, 0.480000)" fill="#121212" fill-rule="nonzero">
            <path d="M17.16,1.656 L19.152,3.408 C17.28,5.4 15.096,7.32 12.552,9.144 L12.552,21.744 L9.864,21.744 L9.864,10.944 C7.224,12.576 4.536,13.968 1.8,15.12 L0.432,12.864 C3.408,11.616 6.456,9.96 9.576,7.872 C12.696,5.76 15.216,3.696 17.16,1.656 Z M32.472,1.44 L34.944,2.232 C34.704,2.904 34.44,3.576 34.152,4.248 L41.76,4.248 L43.32,5.088 C42.672,8.928 41.184,12.288 38.856,15.192 C36.408,18.216 33.264,20.472 29.4,21.96 L27.984,19.704 C31.248,18.456 33.96,16.704 36.12,14.424 C36.144,14.376 36.168,14.352 36.192,14.328 C35.616,13.92 35.016,13.536 34.44,13.176 C33.288,12.432 32.112,11.784 30.912,11.208 L32.52,9.288 C33.696,9.888 34.872,10.536 36.024,11.232 C36.6,11.592 37.2,11.976 37.776,12.36 C38.952,10.632 39.792,8.76 40.32,6.72 L32.856,6.72 C32.472,7.344 32.064,7.944 31.632,8.544 C30.288,10.344 28.68,11.952 26.808,13.392 L24.96,11.64 C26.784,10.2 28.32,8.64 29.568,6.984 C30.84,5.256 31.8,3.408 32.472,1.44 Z M63.216,2.688 L65.904,2.688 L65.904,10.56 C65.904,13.584 65.112,16.032 63.576,17.952 C61.992,19.896 59.592,21.264 56.376,22.056 L55.128,19.68 C58.08,18.984 60.216,17.808 61.512,16.152 C62.64,14.688 63.216,12.744 63.216,10.344 L63.216,2.688 Z M51.648,3.192 L54.336,3.192 L54.336,14.832 L51.648,14.832 L51.648,3.192 Z M73.512,3.336 L91.656,3.336 L93,4.536 C92.088,6.36 91.2,7.872 90.36,9.072 C89.256,10.56 88.008,11.856 86.568,12.984 L84.648,11.136 C86.76,9.48 88.296,7.704 89.256,5.808 L73.512,5.808 L73.512,3.336 Z M81.096,7.584 L83.784,7.584 L83.784,10.824 C83.784,13.512 83.256,15.744 82.2,17.52 C81.096,19.344 79.344,20.832 76.92,21.96 L75.24,19.896 C77.352,18.888 78.84,17.688 79.752,16.344 C80.64,14.952 81.096,13.128 81.096,10.824 L81.096,7.584 Z" id="Italy"></path>
        </g>
    </g>
</svg>