<?xml version="1.0" encoding="UTF-8"?>
<svg width="221px" height="24px" viewBox="0 0 221 24" version="1.1" xmlns="http://www.w3.org/2000/svg" xmlns:xlink="http://www.w3.org/1999/xlink">
    <!-- Generator: Sketch 57.1 (83088) - https://sketch.com -->
    <title>Country</title>
    <desc>Created with Sketch.</desc>
    <g id="Country" stroke="none" stroke-width="1" fill="none" fill-rule="evenodd">
        <path d="M20.04,2.04 L20.04,23.4 L17.52,23.4 L17.52,21.744 L6.936,21.744 L6.936,23.424 L4.416,23.424 L4.416,2.04 L20.04,2.04 Z M6.936,19.296 L17.52,19.296 L17.52,12.84 L6.936,12.84 L6.936,19.296 Z M6.936,10.392 L17.52,10.392 L17.52,4.488 L6.936,4.488 L6.936,10.392 Z M25.608,5.424 L34.728,5.424 L34.728,1.344 L37.272,1.344 L37.272,5.424 L46.368,5.424 L46.368,7.848 L39.144,7.848 C40.728,11.376 43.416,14.52 47.208,17.28 L45.504,19.44 C41.592,16.008 38.856,12.168 37.272,7.92 L37.272,16.44 L42.144,16.44 L42.144,18.864 L37.272,18.864 L37.272,23.52 L34.728,23.52 L34.728,18.864 L30.048,18.864 L30.048,16.44 L34.728,16.44 L34.728,7.92 C33,12.744 30.168,16.68 26.184,19.752 L24.72,17.4 C28.416,14.904 31.104,11.712 32.832,7.848 L25.608,7.848 L25.608,5.424 Z" id="日本" fill="#121212" fill-rule="nonzero"></path>
    </g>
</svg>