<?xml version="1.0" encoding="UTF-8"?>
<svg width="165px" height="23px" viewBox="0 0 165 23" version="1.1" xmlns="http://www.w3.org/2000/svg" xmlns:xlink="http://www.w3.org/1999/xlink">
    <!-- Generator: Sketch 57.1 (83088) - https://sketch.com -->
    <title>key-player</title>
    <desc>Created with Sketch.</desc>
    <g id="key-player" stroke="none" stroke-width="1" fill="none" fill-rule="evenodd">
        <path d="M19.16,5.424 L19.52,7.848 L11.648,8.76 L12.176,12.6 L21.152,11.568 L21.512,13.992 L12.512,15.048 L13.424,21.984 L10.808,22.344 L9.872,15.36 L0.872,16.416 L0.512,13.968 L9.536,12.912 L9.032,9.072 L1.376,9.984 L1.016,7.56 L8.72,6.648 L8.144,2.256 L10.712,1.896 L11.312,6.336 L19.16,5.424 Z M25.784,11.112 L44.24,11.112 L44.24,13.584 L25.784,13.584 L25.784,11.112 Z M69.288,0.408 C70.008,0.408 70.608,0.648 71.136,1.176 C71.64,1.656 71.904,2.28 71.904,3.024 C71.904,3.744 71.64,4.344 71.136,4.872 C70.608,5.352 70.008,5.616 69.288,5.616 C68.568,5.616 67.944,5.352 67.44,4.872 C66.912,4.344 66.672,3.744 66.672,3.024 C66.672,2.28 66.912,1.656 67.44,1.176 C67.944,0.648 68.568,0.408 69.288,0.408 Z M50.088,4.584 L66.264,4.584 L67.608,5.616 C66.6,9.696 65.16,13.056 63.264,15.648 C61.104,18.576 58.152,20.856 54.432,22.488 L52.704,20.424 C55.824,19.056 58.344,17.232 60.312,14.952 C62.088,12.84 63.48,10.2 64.488,7.056 L50.088,7.056 L50.088,4.584 Z M69.288,1.848 C68.952,1.848 68.688,1.944 68.448,2.184 C68.208,2.424 68.112,2.688 68.112,3.024 C68.112,3.336 68.208,3.6 68.448,3.84 C68.688,4.056 68.952,4.176 69.288,4.176 C69.6,4.176 69.888,4.056 70.128,3.84 C70.344,3.6 70.464,3.336 70.464,3.024 C70.464,2.688 70.344,2.424 70.128,2.184 C69.888,1.944 69.6,1.848 69.288,1.848 Z M76.096,2.832 L78.832,2.832 L78.832,19.152 C80.92,18.432 83.08,17.28 85.288,15.72 C87.496,14.136 89.248,12.456 90.592,10.704 L92.704,12.264 C90.688,14.76 88.384,16.872 85.84,18.552 C83.296,20.184 80.464,21.432 77.392,22.272 L76.096,21.168 L76.096,2.832 Z M96.784,11.112 L115.24,11.112 L115.24,13.584 L96.784,13.584 L96.784,11.112 Z M138.496,6.432 L140.176,7.824 C138.112,11.328 135.856,14.088 133.408,16.128 L131.56,14.28 C133.336,12.792 134.92,11.136 136.288,9.264 L128.68,10.632 L130.96,21.888 L128.272,22.44 L125.968,11.112 L120.256,12.12 L119.8,9.576 L125.464,8.616 L124.288,2.856 L127,2.304 L128.176,8.16 L138.496,6.432 Z M144.784,11.112 L163.24,11.112 L163.24,13.584 L144.784,13.584 L144.784,11.112 Z" id="キープレーヤー" fill="#121212" fill-rule="nonzero"></path>
    </g>
</svg>