<svg width="165" height="23" xmlns="http://www.w3.org/2000/svg"><path d="M19.16 5.424l.36 2.424-7.872.912.528 3.84 8.976-1.032.36 2.424-9 1.056.912 6.936-2.616.36-.936-6.984-9 1.056-.36-2.448 9.024-1.056-.504-3.84-7.656.912-.36-2.424 7.704-.912-.576-4.392 2.568-.36.6 4.44 7.848-.912zm6.624 5.688H44.24v2.472H25.784v-2.472zM68.288.408c.72 0 1.32.24 1.848.768.504.48.768 1.104.768 1.848 0 .72-.264 1.32-.768 1.848-.528.48-1.128.744-1.848.744-.72 0-1.344-.264-1.848-.744-.528-.528-.768-1.128-.768-1.848 0-.744.24-1.368.768-1.848.504-.528 1.128-.768 1.848-.768zm-19.2 4.176h16.176l1.344 1.032c-1.008 4.08-2.448 7.44-4.344 10.032-2.16 2.928-5.112 5.208-8.832 6.84l-1.728-2.064c3.12-1.368 5.64-3.192 7.608-5.472 1.776-2.112 3.168-4.752 4.176-7.896h-14.4V4.584zm19.2-2.736c-.336 0-.6.096-.84.336-.24.24-.336.504-.336.84 0 .312.096.576.336.816a1.2 1.2 0 0 0 .84.336c.312 0 .6-.12.84-.336.216-.24.336-.504.336-.816 0-.336-.12-.6-.336-.84a1.14 1.14 0 0 0-.84-.336zm8.808.984h2.736v16.32c2.088-.72 4.248-1.872 6.456-3.432 2.208-1.584 3.96-3.264 5.304-5.016l2.112 1.56c-2.016 2.496-4.32 4.608-6.864 6.288-2.544 1.632-5.376 2.88-8.448 3.72l-1.296-1.104V2.832zm20.688 8.28h18.456v2.472H97.784v-2.472zm41.712-4.68l1.68 1.392c-2.064 3.504-4.32 6.264-6.768 8.304l-1.848-1.848c1.776-1.488 3.36-3.144 4.728-5.016l-7.608 1.368 2.28 11.256-2.688.552-2.304-11.328-5.712 1.008-.456-2.544 5.664-.96-1.176-5.76L128 2.304l1.176 5.856 10.32-1.728zm6.288 4.68h18.456v2.472h-18.456v-2.472z" fill="#121212" fill-rule="nonzero"/></svg>