<svg width="141" height="23" xmlns="http://www.w3.org/2000/svg"><path d="M2.424 3.552h13.512v2.472H2.424V3.552zM.408 8.568h16.56l1.416 1.08c-1.104 3.456-2.544 6.144-4.368 8.016-2.112 2.136-5.064 3.696-8.88 4.656l-1.344-2.352c3.12-.768 5.568-1.896 7.392-3.36 1.704-1.392 3.024-3.264 3.936-5.568H.408V8.568zm38.976-6.432l1.992 1.752c-1.872 1.992-4.056 3.912-6.6 5.736v12.6h-2.688v-10.8a58.52 58.52 0 0 1-8.064 4.176l-1.368-2.256c2.976-1.248 6.024-2.904 9.144-4.992 3.12-2.112 5.64-4.176 7.584-6.216zm9.192 1.248c2.352 1.2 4.896 2.784 7.632 4.776l-1.68 2.04c-2.688-1.92-5.112-3.432-7.272-4.56l1.32-2.256zm16.104 3.36l2.496.96c-1.68 3.816-3.888 6.936-6.648 9.384-2.976 2.568-6.552 4.368-10.776 5.376l-1.224-2.376c3.672-.864 6.936-2.472 9.816-4.872 2.76-2.352 4.872-5.16 6.336-8.472zm7.056-2.928H89.88l1.344 1.2c-.912 1.824-1.8 3.336-2.64 4.536a20.21 20.21 0 0 1-3.792 3.912l-1.92-1.848c2.112-1.656 3.648-3.432 4.608-5.328H71.736V3.816zm7.584 4.248h2.688v3.24c0 2.688-.528 4.92-1.584 6.696-1.104 1.824-2.856 3.312-5.28 4.44l-1.68-2.064c2.112-1.008 3.6-2.208 4.512-3.552.888-1.392 1.344-3.216 1.344-5.52v-3.24zm24.12-.408a47.212 47.212 0 0 1 1.776 2.688 55.3 55.3 0 0 1 1.512 2.568l-2.088 1.272a52.474 52.474 0 0 0-3.264-5.328l2.064-1.2zm6.84.624l2.568.456c-.672 3.36-1.776 6.096-3.312 8.208-1.8 2.4-4.32 4.152-7.56 5.256l-1.464-2.088c2.976-1.056 5.232-2.592 6.792-4.584 1.368-1.776 2.352-4.176 2.976-7.248zm-11.064.672a47.834 47.834 0 0 1 3.288 5.28l-2.064 1.296a58.188 58.188 0 0 0-3.336-5.304l2.112-1.272zM138.288.408c.72 0 1.32.24 1.848.768.504.48.768 1.104.768 1.848 0 .72-.264 1.32-.768 1.848-.528.48-1.128.744-1.848.744-.72 0-1.344-.264-1.848-.744-.528-.528-.768-1.128-.768-1.848 0-.744.24-1.368.768-1.848.504-.528 1.128-.768 1.848-.768zm-19.2 4.176h16.176l1.344 1.032c-1.008 4.08-2.448 7.44-4.344 10.032-2.16 2.928-5.112 5.208-8.832 6.84l-1.728-2.064c3.12-1.368 5.64-3.192 7.608-5.472 1.776-2.112 3.168-4.752 4.176-7.896h-14.4V4.584zm19.2-2.736c-.336 0-.6.096-.84.336-.24.24-.336.504-.336.84 0 .312.096.576.336.816a1.2 1.2 0 0 0 .84.336c.312 0 .6-.12.84-.336.216-.24.336-.504.336-.816 0-.336-.12-.6-.336-.84a1.14 1.14 0 0 0-.84-.336z" fill="#121212" fill-rule="nonzero"/></svg>