<?xml version="1.0" encoding="UTF-8"?>
<svg width="221px" height="24px" viewBox="0 0 221 24" version="1.1" xmlns="http://www.w3.org/2000/svg" xmlns:xlink="http://www.w3.org/1999/xlink">
    <!-- Generator: Sketch 57.1 (83088) - https://sketch.com -->
    <title>Country</title>
    <desc>Created with Sketch.</desc>
    <g id="Country" stroke="none" stroke-width="1" fill="none" fill-rule="evenodd">
        <g id="Group-A" transform="translate(1.152000, 1.344000)"></g>
        <g id="Group-B" transform="translate(1.224000, 0.480000)" fill="#121212" fill-rule="nonzero">
            <path d="M0.36,7.776 L9.888,7.776 L9.888,1.704 L12.576,1.704 L12.576,7.776 L21.192,7.776 L21.192,10.248 L12.576,10.248 L12.576,10.68 C12.576,13.464 12.024,15.768 10.92,17.64 C9.816,19.512 8.088,21.048 5.688,22.272 L3.912,20.136 C6.048,19.08 7.584,17.808 8.52,16.344 C9.432,14.856 9.888,12.984 9.888,10.68 L9.888,10.248 L0.36,10.248 L0.36,7.776 Z M27.48,2.424 C32.28,2.88 37.392,3.648 42.816,4.728 L42.192,7.392 C37.248,6.288 32.184,5.496 27,5.016 L27.48,2.424 Z M28.344,8.784 C31.92,9.216 36.408,10.128 41.808,11.496 L41.136,14.136 C36.456,12.84 32.016,11.904 27.84,11.352 L28.344,8.784 Z M26.544,15.96 C32.16,16.488 37.824,17.664 43.512,19.488 L42.624,22.08 C37.392,20.304 31.872,19.128 26.04,18.576 L26.544,15.96 Z M68.016,0.24 C69.168,1.272 70.056,2.352 70.68,3.456 L69.264,4.488 C68.568,3.288 67.728,2.208 66.72,1.248 L68.016,0.24 Z M65.76,1.752 C66.84,2.712 67.728,3.816 68.4,5.016 L67.008,6 C66.336,4.824 65.472,3.744 64.44,2.76 L65.76,1.752 Z M65.784,5.784 L67.248,7.848 C63.696,9.744 59.328,11.424 54.096,12.864 L54.096,16.08 C54.096,17.04 54.384,17.712 54.984,18.048 C55.728,18.48 57.288,18.696 59.64,18.696 C62.304,18.696 64.968,18.528 67.632,18.192 L67.608,20.76 C63.192,21 60.6,21.144 59.88,21.144 C56.52,21.144 54.312,20.832 53.208,20.256 C52.008,19.608 51.432,18.288 51.432,16.296 C51.432,10.872 51.456,6.264 51.528,2.424 L54.168,2.424 L54.12,10.272 C58.392,9.168 62.28,7.656 65.784,5.784 Z M73.512,3.336 L91.656,3.336 L93,4.536 C92.088,6.36 91.2,7.872 90.36,9.072 C89.256,10.56 88.008,11.856 86.568,12.984 L84.648,11.136 C86.76,9.48 88.296,7.704 89.256,5.808 L73.512,5.808 L73.512,3.336 Z M81.096,7.584 L83.784,7.584 L83.784,10.824 C83.784,13.512 83.256,15.744 82.2,17.52 C81.096,19.344 79.344,20.832 76.92,21.96 L75.24,19.896 C77.352,18.888 78.84,17.688 79.752,16.344 C80.64,14.952 81.096,13.128 81.096,10.824 L81.096,7.584 Z" id="namibia"></path>
        </g>
    </g>
</svg>