<?xml version="1.0" encoding="UTF-8"?>
<svg width="221px" height="24px" viewBox="0 0 221 24" version="1.1" xmlns="http://www.w3.org/2000/svg" xmlns:xlink="http://www.w3.org/1999/xlink">
    <!-- Generator: Sketch 57.1 (83088) - https://sketch.com -->
    <title>Country</title>
    <desc>Created with Sketch.</desc>
    <g id="Country" stroke="none" stroke-width="1" fill="none" fill-rule="evenodd">
        <g id="Group-A" transform="translate(1.152000, 1.344000)"></g>
        <g id="Group-B" transform="translate(1.224000, 0.480000)" fill="#121212" fill-rule="nonzero">
            <path d="M2.472,4.92 L19.08,4.92 L19.08,7.392 L2.472,7.392 L2.472,4.92 Z M0.816,17.88 L20.736,17.88 L20.736,20.352 L0.816,20.352 L0.816,17.88 Z M28.608,8.712 L40.152,8.712 L39.384,18.264 L42.792,18.264 L42.792,20.64 L26.76,20.64 L26.76,18.264 L36.84,18.264 L37.416,11.088 L28.608,11.088 L28.608,8.712 Z M49.56,10.632 L68.016,10.632 L68.016,13.104 L49.56,13.104 L49.56,10.632 Z M90.696,0.384 C91.848,1.416 92.736,2.496 93.36,3.6 L91.944,4.632 C91.248,3.432 90.408,2.352 89.4,1.392 L90.696,0.384 Z M88.296,1.992 C89.376,2.952 90.264,4.056 90.936,5.256 L89.544,6.24 C88.872,5.064 88.008,3.984 86.976,3 L88.296,1.992 Z M76.008,2.448 C79.008,3.24 81.576,4.296 83.712,5.64 L82.248,7.728 C80.376,6.576 77.904,5.592 74.88,4.8 L76.008,2.448 Z M90.288,6.888 L92.784,7.848 C91.272,11.256 89.088,14.16 86.256,16.608 C83.16,19.248 79.56,21.024 75.48,21.984 L74.256,19.536 C78,18.672 81.312,17.064 84.216,14.736 C86.952,12.504 88.968,9.888 90.288,6.888 Z M73.896,7.728 C76.44,8.328 79.008,9.336 81.576,10.776 L80.184,13.032 C78.072,11.808 75.624,10.824 72.792,10.08 L73.896,7.728 Z M97.56,10.632 L116.016,10.632 L116.016,13.104 L97.56,13.104 L97.56,10.632 Z M124.2,3.072 L137.712,3.072 L137.712,5.544 L124.2,5.544 L124.2,3.072 Z M122.184,8.088 L138.744,8.088 L140.16,9.168 C139.056,12.624 137.616,15.312 135.792,17.184 C133.68,19.32 130.728,20.88 126.912,21.84 L125.568,19.488 C128.688,18.72 131.136,17.592 132.96,16.128 C134.664,14.736 135.984,12.864 136.896,10.56 L122.184,10.56 L122.184,8.088 Z M146.352,2.904 C148.704,4.104 151.248,5.688 153.984,7.68 L152.304,9.72 C149.616,7.8 147.192,6.288 145.032,5.16 L146.352,2.904 Z M162.456,6.264 L164.952,7.224 C163.272,11.04 161.064,14.16 158.304,16.608 C155.328,19.176 151.752,20.976 147.528,21.984 L146.304,19.608 C149.976,18.744 153.24,17.136 156.12,14.736 C158.88,12.384 160.992,9.576 162.456,6.264 Z M185.76,1.896 C186.912,2.904 187.8,3.984 188.424,5.112 L187.008,6.144 C186.312,4.92 185.472,3.84 184.464,2.904 L185.76,1.896 Z M183.336,3.576 C184.416,4.536 185.304,5.64 185.976,6.84 L184.584,7.824 C183.912,6.624 183.048,5.544 182.016,4.584 L183.336,3.576 Z M174,1.8 L176.688,1.8 L176.688,9.144 C178.608,9.48 180.528,9.96 182.448,10.608 C184.2,11.184 185.952,11.88 187.728,12.72 L186.576,14.952 C184.992,14.232 183.432,13.608 181.872,13.08 C180.12,12.504 178.392,12.048 176.688,11.736 L176.688,22.008 L174,22.008 L174,1.8 Z" id="new-zealand"></path>
        </g>
    </g>
</svg>