<?xml version="1.0" encoding="UTF-8"?>
<svg width="221px" height="24px" viewBox="0 0 221 24" version="1.1" xmlns="http://www.w3.org/2000/svg" xmlns:xlink="http://www.w3.org/1999/xlink">
    <!-- Generator: Sketch 57.1 (83088) - https://sketch.com -->
    <title>Country</title>
    <desc>Created with Sketch.</desc>
    <g id="Country" stroke="none" stroke-width="1" fill="none" fill-rule="evenodd">
        <path d="M3.288,5.4 L20.712,5.4 L20.712,20.832 L3.288,20.832 L3.288,5.4 Z M5.976,7.872 L5.976,18.36 L18.024,18.36 L18.024,7.872 L5.976,7.872 Z M29.232,2.928 C32.232,3.72 34.8,4.776 36.936,6.12 L35.472,8.208 C33.6,7.056 31.128,6.072 28.104,5.28 L29.232,2.928 Z M43.512,7.368 L46.008,8.328 C44.496,11.736 42.312,14.64 39.48,17.088 C36.384,19.728 32.784,21.504 28.704,22.464 L27.48,20.016 C31.224,19.152 34.536,17.544 37.44,15.216 C40.176,12.984 42.192,10.368 43.512,7.368 Z M27.12,8.208 C29.664,8.808 32.232,9.816 34.8,11.256 L33.408,13.512 C31.296,12.288 28.848,11.304 26.016,10.56 L27.12,8.208 Z M50.736,3.816 L68.88,3.816 L70.224,5.016 C69.312,6.84 68.424,8.352 67.584,9.552 C66.48,11.04 65.232,12.336 63.792,13.464 L61.872,11.616 C63.984,9.96 65.52,8.184 66.48,6.288 L50.736,6.288 L50.736,3.816 Z M58.32,8.064 L61.008,8.064 L61.008,11.304 C61.008,13.992 60.48,16.224 59.424,18 C58.32,19.824 56.568,21.312 54.144,22.44 L52.464,20.376 C54.576,19.368 56.064,18.168 56.976,16.824 C57.864,15.432 58.32,13.608 58.32,11.304 L58.32,8.064 Z" id="russia" fill="#121212" fill-rule="nonzero"></path>
    </g>
</svg>