<?xml version="1.0" encoding="UTF-8"?>
<svg width="221px" height="24px" viewBox="0 0 221 24" version="1.1" xmlns="http://www.w3.org/2000/svg" xmlns:xlink="http://www.w3.org/1999/xlink">
    <!-- Generator: Sketch 57.1 (83088) - https://sketch.com -->
    <title>Country</title>
    <desc>Created with Sketch.</desc>
    <g id="Country" stroke="none" stroke-width="1" fill="none" fill-rule="evenodd">
        <path d="M1.152,6.672 L5.784,6.672 L5.784,2.184 L8.448,2.184 L8.448,6.672 L15.6,6.672 L15.6,1.896 L18.192,1.896 L18.192,6.672 L22.848,6.672 L22.848,9.144 L18.192,9.144 L18.192,11.808 C18.192,14.4 17.544,16.56 16.248,18.24 C14.904,19.968 12.792,21.384 9.888,22.464 L8.448,20.28 C10.992,19.344 12.816,18.24 13.92,16.968 C15.024,15.672 15.6,13.944 15.6,11.808 L15.6,9.144 L8.448,9.144 L8.448,14.712 L5.784,14.712 L5.784,9.144 L1.152,9.144 L1.152,6.672 Z M27.048,3.744 L44.112,3.744 L44.112,6.216 L35.76,6.216 L35.76,10.08 L45.264,10.08 L45.264,12.552 L35.76,12.552 L35.76,17.616 C35.76,18.768 36.576,19.368 38.208,19.368 C40.416,19.368 42.696,19.272 45.024,19.08 L45.024,21.6 C42.72,21.744 40.392,21.816 38.088,21.816 C36.312,21.816 35.016,21.528 34.248,20.952 C33.456,20.376 33.072,19.416 33.072,18.072 L33.072,12.552 L26.136,12.552 L26.136,10.08 L33.072,10.08 L33.072,6.216 L27.048,6.216 L27.048,3.744 Z M50.736,3.816 L68.88,3.816 L70.224,5.016 C69.312,6.84 68.424,8.352 67.584,9.552 C66.48,11.04 65.232,12.336 63.792,13.464 L61.872,11.616 C63.984,9.96 65.52,8.184 66.48,6.288 L50.736,6.288 L50.736,3.816 Z M58.32,8.064 L61.008,8.064 L61.008,11.304 C61.008,13.992 60.48,16.224 59.424,18 C58.32,19.824 56.568,21.312 54.144,22.44 L52.464,20.376 C54.576,19.368 56.064,18.168 56.976,16.824 C57.864,15.432 58.32,13.608 58.32,11.304 L58.32,8.064 Z" id="samoa" fill="#121212" fill-rule="nonzero"></path>
    </g>
</svg>