<?xml version="1.0" encoding="UTF-8"?>
<svg width="221px" height="24px" viewBox="0 0 221 24" version="1.1" xmlns="http://www.w3.org/2000/svg" xmlns:xlink="http://www.w3.org/1999/xlink">
    <!-- Generator: Sketch 57.1 (83088) - https://sketch.com -->
    <title>Country</title>
    <desc>Created with Sketch.</desc>
    <g id="Country" stroke="none" stroke-width="1" fill="none" fill-rule="evenodd">
        <path d="M12.696,15.432 C10.152,18.12 6.888,20.448 2.904,22.416 L1.272,20.256 C7.872,17.184 12.552,12.672 15.336,6.72 L3.84,6.72 L3.84,4.248 L17.328,4.248 L18.936,5.304 C17.64,8.424 16.104,11.136 14.376,13.44 C15.84,14.448 17.16,15.408 18.36,16.32 C20.4,17.88 22.008,19.296 23.184,20.592 L21.096,22.32 C19.872,21.024 18.36,19.656 16.536,18.24 C15.36,17.328 14.088,16.392 12.696,15.432 Z M27.384,5.376 L44.448,5.376 L44.448,20.832 L27.096,20.832 L27.096,18.36 L41.76,18.36 L41.76,7.848 L27.384,7.848 L27.384,5.376 Z M58.44,7.656 C59.064,8.544 59.664,9.432 60.216,10.344 C60.744,11.184 61.248,12.048 61.728,12.912 L59.64,14.184 C58.632,12.288 57.528,10.512 56.376,8.856 L58.44,7.656 Z M65.28,8.28 L67.848,8.736 C67.176,12.096 66.072,14.832 64.536,16.944 C62.736,19.344 60.216,21.096 56.976,22.2 L55.512,20.112 C58.488,19.056 60.744,17.52 62.304,15.528 C63.672,13.752 64.656,11.352 65.28,8.28 Z M54.216,8.952 C55.464,10.68 56.544,12.456 57.504,14.232 L55.44,15.528 C54.336,13.56 53.232,11.808 52.104,10.224 L54.216,8.952 Z M79.224,2.28 L81.912,2.28 L81.912,9.624 C83.832,9.96 85.752,10.44 87.672,11.088 C89.424,11.664 91.176,12.36 92.952,13.2 L91.8,15.432 C90.216,14.712 88.656,14.088 87.096,13.56 C85.344,12.984 83.616,12.528 81.912,12.216 L81.912,22.488 L79.224,22.488 L79.224,2.28 Z M101.424,3.552 L114.936,3.552 L114.936,6.024 L101.424,6.024 L101.424,3.552 Z M99.408,8.568 L115.968,8.568 L117.384,9.648 C116.28,13.104 114.84,15.792 113.016,17.664 C110.904,19.8 107.952,21.36 104.136,22.32 L102.792,19.968 C105.912,19.2 108.36,18.072 110.184,16.608 C111.888,15.216 113.208,13.344 114.12,11.04 L99.408,11.04 L99.408,8.568 Z M123.576,3.384 C125.928,4.584 128.472,6.168 131.208,8.16 L129.528,10.2 C126.84,8.28 124.416,6.768 122.256,5.64 L123.576,3.384 Z M139.68,6.744 L142.176,7.704 C140.496,11.52 138.288,14.64 135.528,17.088 C132.552,19.656 128.976,21.456 124.752,22.464 L123.528,20.088 C127.2,19.224 130.464,17.616 133.344,15.216 C136.104,12.864 138.216,10.056 139.68,6.744 Z M162.984,2.376 C164.136,3.384 165.024,4.464 165.648,5.592 L164.232,6.624 C163.536,5.4 162.696,4.32 161.688,3.384 L162.984,2.376 Z M160.56,4.056 C161.64,5.016 162.528,6.12 163.2,7.32 L161.808,8.304 C161.136,7.104 160.272,6.024 159.24,5.064 L160.56,4.056 Z M151.224,2.28 L153.912,2.28 L153.912,9.624 C155.832,9.96 157.752,10.44 159.672,11.088 C161.424,11.664 163.176,12.36 164.952,13.2 L163.8,15.432 C162.216,14.712 160.656,14.088 159.096,13.56 C157.344,12.984 155.616,12.528 153.912,12.216 L153.912,22.488 L151.224,22.488 L151.224,2.28 Z" id="scotland" fill="#121212" fill-rule="nonzero"></path>
    </g>
</svg>