<?xml version="1.0" encoding="UTF-8"?>
<svg width="221px" height="24px" viewBox="0 0 221 24" version="1.1" xmlns="http://www.w3.org/2000/svg" xmlns:xlink="http://www.w3.org/1999/xlink">
    <!-- Generator: Sketch 57.1 (83088) - https://sketch.com -->
    <title>Country</title>
    <desc>Created with Sketch.</desc>
    <g id="Country" stroke="none" stroke-width="1" fill="none" fill-rule="evenodd">
        <g id="Group-A" transform="translate(1.152000, 1.344000)"></g>
        <g id="Group-B" transform="translate(1.224000, 0.480000)" fill="#121212" fill-rule="nonzero">
            <path d="M-7.81597009e-14,2.712 L9.768,2.712 C9.864,1.992 9.936,1.272 10.032,0.576 L12.576,0.936 L12.36,2.712 L21.552,2.712 L21.552,5.064 L11.952,5.064 C11.808,5.688 11.688,6.312 11.544,6.912 L20.424,6.912 L20.424,20.112 C20.424,21.936 19.584,22.848 17.904,22.848 L15.672,22.848 L15.024,20.424 L17.088,20.496 C17.664,20.496 17.952,20.16 17.952,19.536 L17.952,9.264 L3.648,9.264 L3.648,23.016 L1.176,23.016 L1.176,6.912 L8.976,6.912 C9.12,6.288 9.24,5.664 9.36,5.064 L-7.81597009e-14,5.064 L-7.81597009e-14,2.712 Z M8.496,9.552 C8.952,10.344 9.384,11.256 9.768,12.312 L11.808,12.312 C12.288,11.424 12.696,10.488 13.056,9.48 L15.312,10.296 C14.976,11.04 14.616,11.712 14.232,12.312 L16.416,12.312 L16.416,14.496 L12,14.496 L12,16.32 L17.04,16.32 L17.04,18.504 L12,18.504 L12,22.632 L9.552,22.632 L9.552,18.504 L4.536,18.504 L4.536,16.32 L9.552,16.32 L9.552,14.496 L5.208,14.496 L5.208,12.312 L7.368,12.312 C7.032,11.616 6.672,10.968 6.264,10.368 L8.496,9.552 Z M25.512,3.336 L43.656,3.336 L45,4.536 C44.088,6.36 43.2,7.872 42.36,9.072 C41.256,10.56 40.008,11.856 38.568,12.984 L36.648,11.136 C38.76,9.48 40.296,7.704 41.256,5.808 L25.512,5.808 L25.512,3.336 Z M33.096,7.584 L35.784,7.584 L35.784,10.824 C35.784,13.512 35.256,15.744 34.2,17.52 C33.096,19.344 31.344,20.832 28.92,21.96 L27.24,19.896 C29.352,18.888 30.84,17.688 31.752,16.344 C32.64,14.952 33.096,13.128 33.096,10.824 L33.096,7.584 Z M48.864,4.104 L65.952,4.104 L67.296,5.136 C66.336,9.096 64.68,12.48 62.376,15.288 C60.024,18.12 56.952,20.376 53.208,22.008 L51.48,19.944 C54.552,18.6 57.096,16.896 59.16,14.88 C61.488,12.552 63.168,9.792 64.176,6.576 L48.864,6.576 L48.864,4.104 Z M87.216,2.688 L89.904,2.688 L89.904,10.56 C89.904,13.584 89.112,16.032 87.576,17.952 C85.992,19.896 83.592,21.264 80.376,22.056 L79.128,19.68 C82.08,18.984 84.216,17.808 85.512,16.152 C86.64,14.688 87.216,12.744 87.216,10.344 L87.216,2.688 Z M75.648,3.192 L78.336,3.192 L78.336,14.832 L75.648,14.832 L75.648,3.192 Z M98.304,5.856 L105.552,5.856 C105.624,4.584 105.672,3.192 105.696,1.68 L108.336,1.68 C108.312,3.24 108.264,4.632 108.216,5.856 L116.016,5.856 L115.656,14.76 C115.56,17.136 115.2,18.816 114.576,19.8 C113.832,20.952 112.56,21.528 110.76,21.528 C109.68,21.528 108.576,21.432 107.472,21.24 L107.472,18.768 C108.696,19.008 109.776,19.128 110.736,19.128 C111.48,19.128 112.056,18.696 112.44,17.88 C112.824,17.088 113.04,15.912 113.112,14.376 L113.352,8.328 L108.024,8.328 C107.952,8.88 107.88,9.384 107.832,9.84 C107.4,12.432 106.584,14.616 105.384,16.416 C103.992,18.432 101.928,20.184 99.216,21.696 L97.464,19.728 C99.048,18.84 100.368,17.88 101.448,16.872 C102.672,15.696 103.584,14.424 104.184,13.08 C104.664,11.904 105.048,10.32 105.312,8.328 L98.304,8.328 L98.304,5.856 Z" id="south-africa"></path>
        </g>
    </g>
</svg>