<svg width="29" height="29" xmlns="http://www.w3.org/2000/svg"><path d="M5.552 18.32c-.992 2.048-2.08 3.776-3.264 5.216L.08 20.944c1.696-1.888 3.168-4.576 4.384-8.032l3.008.672c-.224.608-.448 1.216-.64 1.792h6.72v-2.048h3.392v2.048H27.12v2.944H16.944v2.272h8.992v2.816h-8.992v2.272H28.56v2.976H1.264V25.68h12.288v-2.272h-8.48v-2.816h8.48V18.32h-8zM3.984.592h21.312v11.904H3.984V.592zm17.984 9.12V7.856H7.28v1.856h14.688zM7.28 5.232h14.688V3.408H7.28v1.824z" fill="#121212" fill-rule="nonzero"/></svg>