<?xml version="1.0" encoding="UTF-8"?>
<svg width="221px" height="24px" viewBox="0 0 221 24" version="1.1" xmlns="http://www.w3.org/2000/svg" xmlns:xlink="http://www.w3.org/1999/xlink">
    <!-- Generator: Sketch 57.1 (83088) - https://sketch.com -->
    <title>Country</title>
    <desc>Created with Sketch.</desc>
    <g id="Country" stroke="none" stroke-width="1" fill="none" fill-rule="evenodd">
        <g id="Group-A" transform="translate(1.152000, 1.344000)"></g>
        <g id="Group-B" transform="translate(1.224000, 0.480000)"></g>
        <g id="Group-C" transform="translate(1.656000, 0.528000)" fill="#121212" fill-rule="nonzero">
            <path d="M5.568,1.752 L8.256,1.752 L8.256,9.096 C10.176,9.432 12.096,9.912 14.016,10.56 C15.768,11.136 17.52,11.832 19.296,12.672 L18.144,14.904 C16.56,14.184 15,13.56 13.44,13.032 C11.688,12.456 9.96,12 8.256,11.688 L8.256,21.96 L5.568,21.96 L5.568,1.752 Z M25.92,2.856 C28.272,4.056 30.816,5.64 33.552,7.632 L31.872,9.672 C29.184,7.752 26.76,6.24 24.6,5.112 L25.92,2.856 Z M42.024,6.216 L44.52,7.176 C42.84,10.992 40.632,14.112 37.872,16.56 C34.896,19.128 31.32,20.928 27.096,21.936 L25.872,19.56 C29.544,18.696 32.808,17.088 35.688,14.688 C38.448,12.336 40.56,9.528 42.024,6.216 Z M67.32,0.312 C68.472,1.344 69.36,2.424 69.984,3.528 L68.568,4.56 C67.872,3.36 67.032,2.28 66.024,1.32 L67.32,0.312 Z M64.56,1.368 C65.64,2.328 66.528,3.432 67.2,4.632 L65.808,5.616 C65.136,4.44 64.272,3.36 63.24,2.376 L64.56,1.368 Z M49.872,5.808 L57.12,5.808 C57.192,4.536 57.24,3.144 57.264,1.632 L59.904,1.632 C59.88,3.192 59.832,4.584 59.784,5.808 L67.584,5.808 L67.224,14.712 C67.128,17.088 66.768,18.768 66.144,19.752 C65.4,20.904 64.128,21.48 62.328,21.48 C61.248,21.48 60.144,21.384 59.04,21.192 L59.04,18.72 C60.264,18.96 61.344,19.08 62.304,19.08 C63.048,19.08 63.624,18.648 64.032,17.808 C64.392,17.016 64.608,15.864 64.68,14.328 L64.92,8.28 L59.592,8.28 C59.52,8.832 59.448,9.336 59.4,9.792 C58.968,12.384 58.152,14.568 56.952,16.368 C55.56,18.384 53.496,20.136 50.784,21.648 L49.032,19.68 C50.616,18.792 51.936,17.832 53.016,16.824 C54.24,15.648 55.152,14.376 55.752,13.032 C56.232,11.856 56.616,10.272 56.88,8.28 L49.872,8.28 L49.872,5.808 Z" id="Tonga"></path>
        </g>
    </g>
</svg>