<?xml version="1.0" encoding="UTF-8"?>
<svg width="221px" height="24px" viewBox="0 0 221 24" version="1.1" xmlns="http://www.w3.org/2000/svg" xmlns:xlink="http://www.w3.org/1999/xlink">
    <!-- Generator: Sketch 57.1 (83088) - https://sketch.com -->
    <title>Country</title>
    <desc>Created with Sketch.</desc>
    <g id="Country" stroke="none" stroke-width="1" fill="none" fill-rule="evenodd">
        <g id="Group-A" transform="translate(1.152000, 1.344000)"></g>
        <g id="Group-B" transform="translate(1.224000, 0.480000)"></g>
        <g id="Group-C" transform="translate(1.656000, 0.528000)"></g>
        <g id="Group-D" transform="translate(0.000000, -4.000000)" fill="#121212" fill-rule="nonzero">
            <path d="M10.44,5.968 L13.128,5.968 L13.128,10.048 L19.152,10.048 L20.856,10.984 C20.664,14.824 19.68,17.968 17.952,20.416 C16.104,22.96 13.224,24.976 9.336,26.464 L7.848,24.256 C11.136,23.08 13.608,21.496 15.24,19.528 C16.8,17.656 17.712,15.304 17.952,12.496 L5.832,12.496 L5.832,17.584 L3.144,17.584 L3.144,10.048 L10.44,10.048 L10.44,5.968 Z M36.768,7.216 L39.456,7.216 L39.456,22.312 C41.832,20.512 43.872,18.328 45.6,15.784 L47.76,17.296 C46.584,18.976 45.168,20.608 43.536,22.144 C41.76,23.776 40.032,25.024 38.4,25.84 L36.768,24.952 L36.768,7.216 Z M29.928,7.744 L32.616,7.744 L32.616,15.136 C32.616,17.848 32.232,20.032 31.512,21.664 C30.696,23.416 29.28,25.024 27.24,26.464 L25.536,24.472 C27.216,23.224 28.392,21.88 29.04,20.488 C29.616,19.192 29.928,17.392 29.928,15.136 L29.928,7.744 Z M69.264,4.528 C70.416,5.56 71.304,6.64 71.928,7.744 L70.512,8.776 C69.816,7.576 68.976,6.496 67.968,5.536 L69.264,4.528 Z M65.688,4.576 C66.768,5.536 67.656,6.64 68.328,7.84 L66.936,8.824 C66.264,7.648 65.4,6.568 64.368,5.584 L65.688,4.576 Z M57.696,6.016 L60.168,6.808 C59.88,7.6 59.568,8.368 59.232,9.088 L66.816,9.088 L68.376,9.904 C67.656,13.96 66.168,17.368 63.864,20.152 C61.56,22.864 58.512,24.952 54.696,26.44 L53.28,24.184 C56.376,23.032 58.896,21.496 60.864,19.576 C63.072,17.416 64.56,14.752 65.328,11.584 L57.912,11.584 C57.576,12.088 57.264,12.568 56.928,13.024 C55.656,14.704 54.024,16.336 52.008,17.872 L50.16,16.12 C51.984,14.68 53.544,13.144 54.792,11.512 C56.064,9.784 57.024,7.96 57.696,6.016 Z M74.736,7.816 L92.88,7.816 L94.224,9.016 C93.312,10.84 92.424,12.352 91.584,13.552 C90.48,15.04 89.232,16.336 87.792,17.464 L85.872,15.616 C87.984,13.96 89.52,12.184 90.48,10.288 L74.736,10.288 L74.736,7.816 Z M82.32,12.064 L85.008,12.064 L85.008,15.304 C85.008,17.992 84.48,20.224 83.424,22 C82.32,23.824 80.568,25.312 78.144,26.44 L76.464,24.376 C78.576,23.368 80.064,22.168 80.976,20.824 C81.864,19.432 82.32,17.608 82.32,15.304 L82.32,12.064 Z M114.384,6.136 L116.376,7.888 C114.504,9.88 112.32,11.8 109.776,13.624 L109.776,26.224 L107.088,26.224 L107.088,15.424 C104.448,17.056 101.76,18.448 99.024,19.6 L97.656,17.344 C100.632,16.096 103.68,14.44 106.8,12.352 C109.92,10.24 112.44,8.176 114.384,6.136 Z" id="Uruguay"></path>
        </g>
    </g>
</svg>