<?xml version="1.0" encoding="UTF-8"?>
<svg width="221px" height="24px" viewBox="0 0 221 24" version="1.1" xmlns="http://www.w3.org/2000/svg" xmlns:xlink="http://www.w3.org/1999/xlink">
    <!-- Generator: Sketch 57.1 (83088) - https://sketch.com -->
    <title>Country</title>
    <desc>Created with Sketch.</desc>
    <g id="Country" stroke="none" stroke-width="1" fill="none" fill-rule="evenodd">
        <g id="Group-A" transform="translate(1.152000, 1.344000)"></g>
        <g id="Group-B" transform="translate(1.224000, 0.480000)"></g>
        <g id="Group-C" transform="translate(1.656000, 0.528000)"></g>
        <g id="Group-D" transform="translate(2.000000, 0.000000)" fill="#121212" fill-rule="nonzero">
            <path d="M8.44,1.968 L11.128,1.968 L11.128,6.048 L17.152,6.048 L18.856,6.984 C18.664,10.824 17.68,13.968 15.952,16.416 C14.104,18.96 11.224,20.976 7.336,22.464 L5.848,20.256 C9.136,19.08 11.608,17.496 13.24,15.528 C14.8,13.656 15.712,11.304 15.952,8.496 L3.832,8.496 L3.832,13.584 L1.144,13.584 L1.144,6.048 L8.44,6.048 L8.44,1.968 Z M27.496,9.384 L40.552,9.384 L40.552,11.688 L35.296,11.688 L35.296,18.768 L41.776,18.768 L41.776,21.072 L26.248,21.072 L26.248,18.768 L32.728,18.768 L32.728,11.688 L27.496,11.688 L27.496,9.384 Z M48.784,11.112 L67.24,11.112 L67.24,13.584 L48.784,13.584 L48.784,11.112 Z M82.768,3.216 L85.456,3.216 L85.456,18.312 C87.832,16.512 89.872,14.328 91.6,11.784 L93.76,13.296 C92.584,14.976 91.168,16.608 89.536,18.144 C87.76,19.776 86.032,21.024 84.4,21.84 L82.768,20.952 L82.768,3.216 Z M75.928,3.744 L78.616,3.744 L78.616,11.136 C78.616,13.848 78.232,16.032 77.512,17.664 C76.696,19.416 75.28,21.024 73.24,22.464 L71.536,20.472 C73.216,19.224 74.392,17.88 75.04,16.488 C75.616,15.192 75.928,13.392 75.928,11.136 L75.928,3.744 Z M115.264,0.576 C116.416,1.608 117.304,2.688 117.928,3.792 L116.512,4.824 C115.816,3.624 114.976,2.544 113.968,1.584 L115.264,0.576 Z M113.08,2.352 C114.16,3.312 115.048,4.416 115.72,5.616 L114.328,6.6 C113.656,5.424 112.792,4.344 111.76,3.36 L113.08,2.352 Z M106.696,15.432 C104.152,18.12 100.888,20.448 96.904,22.416 L95.272,20.256 C101.872,17.184 106.552,12.672 109.336,6.72 L97.84,6.72 L97.84,4.248 L111.328,4.248 L112.936,5.304 C111.64,8.424 110.104,11.136 108.376,13.44 C109.84,14.448 111.16,15.408 112.36,16.32 C114.4,17.88 116.008,19.296 117.184,20.592 L115.096,22.32 C113.872,21.024 112.36,19.656 110.536,18.24 C109.36,17.328 108.088,16.392 106.696,15.432 Z" id="Wales"></path>
        </g>
    </g>
</svg>