<?xml version="1.0" encoding="UTF-8"?>
<svg width="775px" height="53px" viewBox="0 0 775 53" version="1.1" xmlns="http://www.w3.org/2000/svg" xmlns:xlink="http://www.w3.org/1999/xlink">
    <!-- Generator: Sketch 57.1 (83088) - https://sketch.com -->
    <title>Top-Type</title>
    <desc>Created with Sketch.</desc>
    <g id="Top-Type" stroke="none" stroke-width="1" fill="none" fill-rule="evenodd">
        <g id="Group-C" transform="translate(108.000000, -11.000000)" fill="#6EBCF5" fill-rule="nonzero">
            <path d="M6.384,18.904 L48.72,18.904 L51.856,21.704 C49.728,25.96 47.656,29.488 45.696,32.288 C43.12,35.76 40.208,38.784 36.848,41.416 L32.368,37.104 C37.296,33.24 40.88,29.096 43.12,24.672 L6.384,24.672 L6.384,18.904 Z M24.08,28.816 L30.352,28.816 L30.352,36.376 C30.352,42.648 29.12,47.856 26.656,52 C24.08,56.256 19.992,59.728 14.336,62.36 L10.416,57.544 C15.344,55.192 18.816,52.392 20.944,49.256 C23.016,46.008 24.08,41.752 24.08,36.376 L24.08,28.816 Z M85.792,17.504 L92.064,17.504 L92.064,52.728 C97.608,48.528 102.368,43.432 106.4,37.496 L111.44,41.024 C108.696,44.944 105.392,48.752 101.584,52.336 C97.44,56.144 93.408,59.056 89.6,60.96 L85.792,58.888 L85.792,17.504 Z M69.832,18.736 L76.104,18.736 L76.104,35.984 C76.104,42.312 75.208,47.408 73.528,51.216 C71.624,55.304 68.32,59.056 63.56,62.416 L59.584,57.768 C63.504,54.856 66.248,51.72 67.76,48.472 C69.104,45.448 69.832,41.248 69.832,35.984 L69.832,18.736 Z M161.56,12.296 C164.248,14.704 166.32,17.224 167.776,19.8 L164.472,22.208 C162.848,19.408 160.888,16.888 158.536,14.648 L161.56,12.296 Z M155.512,14.76 C158.032,17 160.104,19.576 161.672,22.376 L158.424,24.672 C156.856,21.928 154.84,19.408 152.432,17.112 L155.512,14.76 Z M128.968,15.152 L135.24,15.152 C135.128,19.856 135.016,24.448 134.96,28.816 L160.72,25.232 L164.696,28.144 C160.16,36.04 154.336,42.872 147.224,48.584 L143.08,44.104 C147.896,40.184 151.984,35.984 155.288,31.616 L134.904,34.64 C134.792,40.464 134.792,46.008 134.792,51.16 C134.792,52.952 135.632,54.184 137.312,54.856 C138.656,55.36 141.176,55.64 144.872,55.64 C150.808,55.64 156.632,55.248 162.456,54.576 L162.456,60.4 C155.624,61.016 149.8,61.352 144.872,61.352 C138.88,61.352 134.792,60.736 132.552,59.616 C129.864,58.16 128.52,55.472 128.52,51.44 C128.52,46.4 128.52,41.136 128.632,35.536 L116.76,37.272 L115.752,31.56 L128.688,29.712 C128.744,25.008 128.856,20.192 128.968,15.152 Z M176.344,17.896 C181.832,20.696 187.768,24.392 194.152,29.04 L190.232,33.8 C183.96,29.32 178.304,25.792 173.264,23.16 L176.344,17.896 Z M213.92,25.736 L219.744,27.976 C215.824,36.88 210.672,44.16 204.232,49.872 C197.288,55.864 188.944,60.064 179.088,62.416 L176.232,56.872 C184.8,54.856 192.416,51.104 199.136,45.504 C205.576,40.016 210.504,33.464 213.92,25.736 Z M266.392,15.656 L269.696,21.032 C265.272,22.544 260.624,23.832 255.808,24.896 L255.808,33.856 L275.912,33.856 L275.912,39.624 L255.808,39.624 C255.584,44.776 254.072,49.312 251.216,53.232 C248.528,56.816 244.664,59.896 239.624,62.472 L235.48,57.6 C239.624,55.416 242.872,52.952 245.224,50.208 C247.856,47.072 249.312,43.544 249.536,39.624 L228.816,39.624 L228.816,33.856 L249.536,33.856 L249.536,26.072 C244.496,26.912 239.176,27.528 233.688,27.864 L232.176,22.208 C238.448,21.76 244.552,21.032 250.376,19.912 C255.92,18.792 261.24,17.392 266.392,15.656 Z M288.344,17.896 C293.832,20.696 299.768,24.392 306.152,29.04 L302.232,33.8 C295.96,29.32 290.304,25.792 285.264,23.16 L288.344,17.896 Z M325.92,25.736 L331.744,27.976 C327.824,36.88 322.672,44.16 316.232,49.872 C309.288,55.864 300.944,60.064 291.088,62.416 L288.232,56.872 C296.8,54.856 304.416,51.104 311.136,45.504 C317.576,40.016 322.504,33.464 325.92,25.736 Z M378.392,15.656 L381.696,21.032 C377.272,22.544 372.624,23.832 367.808,24.896 L367.808,33.856 L387.912,33.856 L387.912,39.624 L367.808,39.624 C367.584,44.776 366.072,49.312 363.216,53.232 C360.528,56.816 356.664,59.896 351.624,62.472 L347.48,57.6 C351.624,55.416 354.872,52.952 357.224,50.208 C359.856,47.072 361.312,43.544 361.536,39.624 L340.816,39.624 L340.816,33.856 L361.536,33.856 L361.536,26.072 C356.496,26.912 351.176,27.528 345.688,27.864 L344.176,22.208 C350.448,21.76 356.552,21.032 362.376,19.912 C367.92,18.792 373.24,17.392 378.392,15.656 Z M398.496,35.928 L441.56,35.928 L441.56,41.696 L398.496,41.696 L398.496,35.928 Z M484.176,34.136 C488.88,39.68 494.424,48.472 500.752,60.512 L495.264,63.536 C494.088,61.296 492.968,59.224 491.848,57.264 C480.648,58.832 467.208,59.84 451.584,60.344 L451.36,54.688 L456.96,54.464 C460.432,44.944 465.36,31.784 471.856,14.928 L477.848,16.888 C473.704,27.304 469,39.736 463.736,54.072 C473.48,53.512 481.88,52.784 488.824,51.944 C488.432,51.328 488.096,50.768 487.76,50.208 C484.624,45 481.768,40.8 479.248,37.664 L484.176,34.136 Z M552.944,11.96 C555.632,14.368 557.704,16.888 559.16,19.464 L555.856,21.872 C554.232,19.072 552.272,16.552 549.92,14.312 L552.944,11.96 Z M546.504,14.424 C549.024,16.664 551.096,19.24 552.664,22.04 L549.416,24.336 C547.848,21.592 545.832,19.072 543.424,16.776 L546.504,14.424 Z M512.232,24.784 L529.144,24.784 C529.312,21.816 529.424,18.568 529.48,15.04 L535.64,15.04 C535.584,18.68 535.472,21.928 535.36,24.784 L553.56,24.784 L552.72,45.56 C552.496,51.104 551.656,55.024 550.2,57.32 C548.464,60.008 545.496,61.352 541.296,61.352 C538.776,61.352 536.2,61.128 533.624,60.68 L533.624,54.912 C536.48,55.472 539,55.752 541.24,55.752 C542.976,55.752 544.32,54.744 545.272,52.784 C546.112,50.936 546.616,48.248 546.784,44.664 L547.344,30.552 L534.912,30.552 C534.744,31.84 534.576,33.016 534.464,34.08 C533.456,40.128 531.552,45.224 528.752,49.424 C525.504,54.128 520.688,58.216 514.36,61.744 L510.272,57.152 C513.968,55.08 517.048,52.84 519.568,50.488 C522.424,47.744 524.552,44.776 525.952,41.64 C527.072,38.896 527.968,35.2 528.584,30.552 L512.232,30.552 L512.232,24.784 Z M602.896,14.984 L607.544,19.072 C603.176,23.72 598.08,28.2 592.144,32.456 L592.144,61.856 L585.872,61.856 L585.872,36.656 C579.712,40.464 573.44,43.712 567.056,46.4 L563.864,41.136 C570.808,38.224 577.92,34.36 585.2,29.488 C592.48,24.56 598.36,19.744 602.896,14.984 Z M660.296,15.544 C662.984,17.896 665.056,20.416 666.512,23.048 L663.208,25.456 C661.584,22.6 659.624,20.08 657.272,17.896 L660.296,15.544 Z M654.64,19.464 C657.16,21.704 659.232,24.28 660.8,27.08 L657.552,29.376 C655.984,26.576 653.968,24.056 651.56,21.816 L654.64,19.464 Z M632.856,15.32 L639.128,15.32 L639.128,32.456 C643.608,33.24 648.088,34.36 652.568,35.872 C656.656,37.216 660.744,38.84 664.888,40.8 L662.2,46.008 C658.504,44.328 654.864,42.872 651.224,41.64 C647.136,40.296 643.104,39.232 639.128,38.504 L639.128,62.472 L632.856,62.472 L632.856,15.32 Z" id="argentina"></path>
        </g>
        <g id="Group-D" transform="translate(56.000000, 0.000000)"></g>
    </g>
</svg>