<?xml version="1.0" encoding="UTF-8"?>
<svg width="775px" height="53px" viewBox="0 0 775 53" version="1.1" xmlns="http://www.w3.org/2000/svg" xmlns:xlink="http://www.w3.org/1999/xlink">
    <!-- Generator: Sketch 57.1 (83088) - https://sketch.com -->
    <title>Top-Type</title>
    <desc>Created with Sketch.</desc>
    <g id="Top-Type" stroke="none" stroke-width="1" fill="none" fill-rule="evenodd">
        <g id="Group-D" transform="translate(56.000000, 0.000000)" fill="#36AA46" fill-rule="nonzero">
            <path d="M28.424,4.264 L34.752,4.264 L34.752,13.784 L47.296,13.784 L47.296,19.552 L34.752,19.552 L34.752,44.08 C34.752,48.56 32.288,50.856 27.416,50.856 C24.896,50.856 22.208,50.632 19.352,50.296 L19.352,44.528 C22.824,45.088 25.4,45.368 27.08,45.368 C27.976,45.368 28.424,44.864 28.424,43.912 L28.424,25.376 C26.632,28.512 23.44,32.208 18.792,36.52 C14.088,40.776 9.44,44.304 4.736,47.048 L0.76,42.12 C5.912,39.096 10.56,35.736 14.704,32.096 C19.072,28.232 22.936,24.032 26.296,19.552 L2.44,19.552 L2.44,13.784 L28.424,13.784 L28.424,4.264 Z M58.496,24.928 L101.56,24.928 L101.56,30.696 L58.496,30.696 L58.496,24.928 Z M137.624,35.008 C131.688,41.28 124.072,46.712 114.776,51.304 L110.968,46.264 C126.368,39.096 137.288,28.568 143.784,14.68 L116.96,14.68 L116.96,8.912 L148.432,8.912 L152.184,11.376 C149.16,18.656 145.576,24.984 141.544,30.36 C144.96,32.712 148.04,34.952 150.84,37.08 C155.6,40.72 159.352,44.024 162.096,47.048 L157.224,51.08 C154.368,48.056 150.84,44.864 146.584,41.56 C143.84,39.432 140.872,37.248 137.624,35.008 Z M180.856,4.32 L187.128,4.32 L187.128,21.456 C191.608,22.24 196.088,23.36 200.568,24.872 C204.656,26.216 208.744,27.84 212.888,29.8 L210.2,35.008 C206.504,33.328 202.864,31.872 199.224,30.64 C195.136,29.296 191.104,28.232 187.128,27.504 L187.128,51.472 L180.856,51.472 L180.856,4.32 Z M232.656,7.288 L264.184,7.288 L264.184,13.056 L232.656,13.056 L232.656,7.288 Z M227.952,18.992 L266.592,18.992 L269.896,21.512 C267.32,29.576 263.96,35.848 259.704,40.216 C254.776,45.2 247.888,48.84 238.984,51.08 L235.848,45.592 C243.128,43.8 248.84,41.168 253.096,37.752 C257.072,34.504 260.152,30.136 262.28,24.76 L227.952,24.76 L227.952,18.992 Z M314.36,6.392 L320.632,6.392 L320.632,24.76 C320.632,31.816 318.784,37.528 315.2,42.008 C311.504,46.544 305.904,49.736 298.4,51.584 L295.488,46.04 C302.376,44.416 307.36,41.672 310.384,37.808 C313.016,34.392 314.36,29.856 314.36,24.256 L314.36,6.392 Z M287.368,7.568 L293.64,7.568 L293.64,34.728 L287.368,34.728 L287.368,7.568 Z M338.384,7.904 L380.72,7.904 L383.856,10.704 C381.728,14.96 379.656,18.488 377.696,21.288 C375.12,24.76 372.208,27.784 368.848,30.416 L364.368,26.104 C369.296,22.24 372.88,18.096 375.12,13.672 L338.384,13.672 L338.384,7.904 Z M356.08,17.816 L362.352,17.816 L362.352,25.376 C362.352,31.648 361.12,36.856 358.656,41 C356.08,45.256 351.992,48.728 346.336,51.36 L342.416,46.544 C347.344,44.192 350.816,41.392 352.944,38.256 C355.016,35.008 356.08,30.752 356.08,25.376 L356.08,17.816 Z M430.392,4.656 L433.696,10.032 C429.272,11.544 424.624,12.832 419.808,13.896 L419.808,22.856 L439.912,22.856 L439.912,28.624 L419.808,28.624 C419.584,33.776 418.072,38.312 415.216,42.232 C412.528,45.816 408.664,48.896 403.624,51.472 L399.48,46.6 C403.624,44.416 406.872,41.952 409.224,39.208 C411.856,36.072 413.312,32.544 413.536,28.624 L392.816,28.624 L392.816,22.856 L413.536,22.856 L413.536,15.072 C408.496,15.912 403.176,16.528 397.688,16.864 L396.176,11.208 C402.448,10.76 408.552,10.032 414.376,8.912 C419.92,7.792 425.24,6.392 430.392,4.656 Z M450.496,24.928 L493.56,24.928 L493.56,30.696 L450.496,30.696 L450.496,24.928 Z M536.176,23.136 C540.88,28.68 546.424,37.472 552.752,49.512 L547.264,52.536 C546.088,50.296 544.968,48.224 543.848,46.264 C532.648,47.832 519.208,48.84 503.584,49.344 L503.36,43.688 L508.96,43.464 C512.432,33.944 517.36,20.784 523.856,3.928 L529.848,5.888 C525.704,16.304 521,28.736 515.736,43.072 C525.48,42.512 533.88,41.784 540.824,40.944 C540.432,40.328 540.096,39.768 539.76,39.208 C536.624,34 533.768,29.8 531.248,26.664 L536.176,23.136 Z M604.944,0.96 C607.632,3.368 609.704,5.888 611.16,8.464 L607.856,10.872 C606.232,8.072 604.272,5.552 601.92,3.312 L604.944,0.96 Z M598.504,3.424 C601.024,5.664 603.096,8.24 604.664,11.04 L601.416,13.336 C599.848,10.592 597.832,8.072 595.424,5.776 L598.504,3.424 Z M564.232,13.784 L581.144,13.784 C581.312,10.816 581.424,7.568 581.48,4.04 L587.64,4.04 C587.584,7.68 587.472,10.928 587.36,13.784 L605.56,13.784 L604.72,34.56 C604.496,40.104 603.656,44.024 602.2,46.32 C600.464,49.008 597.496,50.352 593.296,50.352 C590.776,50.352 588.2,50.128 585.624,49.68 L585.624,43.912 C588.48,44.472 591,44.752 593.24,44.752 C594.976,44.752 596.32,43.744 597.272,41.784 C598.112,39.936 598.616,37.248 598.784,33.664 L599.344,19.552 L586.912,19.552 C586.744,20.84 586.576,22.016 586.464,23.08 C585.456,29.128 583.552,34.224 580.752,38.424 C577.504,43.128 572.688,47.216 566.36,50.744 L562.272,46.152 C565.968,44.08 569.048,41.84 571.568,39.488 C574.424,36.744 576.552,33.776 577.952,30.64 C579.072,27.896 579.968,24.2 580.584,19.552 L564.232,19.552 L564.232,13.784 Z M654.896,3.984 L659.544,8.072 C655.176,12.72 650.08,17.2 644.144,21.456 L644.144,50.856 L637.872,50.856 L637.872,25.656 C631.712,29.464 625.44,32.712 619.056,35.4 L615.864,30.136 C622.808,27.224 629.92,23.36 637.2,18.488 C644.48,13.56 650.36,8.744 654.896,3.984 Z M712.296,4.544 C714.984,6.896 717.056,9.416 718.512,12.048 L715.208,14.456 C713.584,11.6 711.624,9.08 709.272,6.896 L712.296,4.544 Z M706.64,8.464 C709.16,10.704 711.232,13.28 712.8,16.08 L709.552,18.376 C707.984,15.576 705.968,13.056 703.56,10.816 L706.64,8.464 Z M684.856,4.32 L691.128,4.32 L691.128,21.456 C695.608,22.24 700.088,23.36 704.568,24.872 C708.656,26.216 712.744,27.84 716.888,29.8 L714.2,35.008 C710.504,33.328 706.864,31.872 703.224,30.64 C699.136,29.296 695.104,28.232 691.128,27.504 L691.128,51.472 L684.856,51.472 L684.856,4.32 Z" id="australia"></path>
        </g>
    </g>
</svg>