<?xml version="1.0" encoding="UTF-8"?>
<svg width="775px" height="53px" viewBox="0 0 775 53" version="1.1" xmlns="http://www.w3.org/2000/svg" xmlns:xlink="http://www.w3.org/1999/xlink">
    <!-- Generator: Sketch 57.1 (83088) - https://sketch.com -->
    <title>Top-Type</title>
    <desc>Created with Sketch.</desc>
    <g id="Top-Type" stroke="none" stroke-width="1" fill="none" fill-rule="evenodd">
        <g id="Group-B" fill="#FF4E36" fill-rule="nonzero">
            <path d="M284.376,13.824 L301.288,13.824 C301.456,10.856 301.568,7.608 301.624,4.08 L307.784,4.08 C307.728,7.72 307.616,10.968 307.504,13.824 L325.704,13.824 L324.864,34.6 C324.64,40.144 323.8,44.064 322.344,46.36 C320.608,49.048 317.64,50.392 313.44,50.392 C310.92,50.392 308.344,50.168 305.768,49.72 L305.768,43.952 C308.624,44.512 311.144,44.792 313.384,44.792 C315.12,44.792 316.464,43.784 317.36,41.88 C318.256,40.032 318.76,37.288 318.928,33.704 L319.488,19.592 L307.056,19.592 C306.888,20.88 306.72,22.056 306.608,23.12 C305.6,29.168 303.696,34.264 300.896,38.464 C297.648,43.168 292.832,47.256 286.504,50.784 L282.416,46.192 C286.112,44.12 289.192,41.88 291.712,39.528 C294.568,36.784 296.696,33.816 298.096,30.68 C299.216,27.936 300.112,24.24 300.728,19.592 L284.376,19.592 L284.376,13.824 Z M335.84,18.304 L358.072,18.304 L358.072,4.136 L364.344,4.136 L364.344,18.304 L384.448,18.304 L384.448,24.072 L364.344,24.072 L364.344,25.08 C364.344,31.576 363.056,36.952 360.48,41.32 C357.904,45.688 353.872,49.272 348.272,52.128 L344.128,47.144 C349.112,44.68 352.696,41.712 354.88,38.296 C357.008,34.824 358.072,30.456 358.072,25.08 L358.072,24.072 L335.84,24.072 L335.84,18.304 Z M437.76,0.16 C440.448,2.568 442.52,5.088 443.976,7.664 L440.672,10.072 C439.048,7.272 437.088,4.752 434.736,2.512 L437.76,0.16 Z M430.368,0.216 C432.888,2.456 434.96,5.032 436.528,7.832 L433.28,10.128 C431.712,7.384 429.696,4.864 427.288,2.568 L430.368,0.216 Z M410.768,3.52 L416.536,5.368 C415.976,6.936 415.36,8.504 414.688,10.072 L432.44,10.072 L436.08,12.032 C434.568,20.992 431.096,28.832 425.664,35.608 C419.952,42.664 412.616,47.928 403.6,51.4 L400.296,46.136 C407.912,43.224 414.24,39.136 419.28,33.816 C419.336,33.704 419.392,33.648 419.448,33.592 C418.104,32.64 416.704,31.744 415.36,30.904 C412.672,29.168 409.928,27.656 407.128,26.312 L410.88,21.832 C413.624,23.232 416.368,24.744 419.056,26.368 C420.4,27.208 421.8,28.104 423.144,29 C425.888,24.968 427.848,20.6 429.08,15.84 L411.664,15.84 C410.768,17.296 409.816,18.696 408.808,20.096 C405.672,24.296 401.92,28.048 397.552,31.408 L393.24,27.32 C397.496,23.96 401.08,20.32 403.992,16.456 C406.96,12.424 409.2,8.112 410.768,3.52 Z M486.536,4.696 L489.84,10.072 C485.416,11.584 480.768,12.872 475.952,13.936 L475.952,22.896 L496.056,22.896 L496.056,28.664 L475.952,28.664 C475.728,33.816 474.216,38.352 471.36,42.272 C468.672,45.856 464.808,48.936 459.768,51.512 L455.624,46.64 C459.768,44.456 463.016,41.992 465.368,39.248 C468,36.112 469.456,32.584 469.68,28.664 L448.96,28.664 L448.96,22.896 L469.68,22.896 L469.68,15.112 C464.64,15.952 459.32,16.568 453.832,16.904 L452.32,11.248 C458.592,10.8 464.696,10.072 470.52,8.952 C476.064,7.832 481.384,6.432 486.536,4.696 Z M506.64,24.968 L549.704,24.968 L549.704,30.736 L506.64,30.736 L506.64,24.968 Z M592.32,23.176 C597.024,28.72 602.568,37.512 608.896,49.552 L603.408,52.576 C602.232,50.336 601.112,48.264 599.992,46.304 C588.792,47.872 575.352,48.88 559.728,49.384 L559.504,43.728 L565.104,43.504 C568.576,33.984 573.504,20.824 580,3.968 L585.992,5.928 C581.848,16.344 577.144,28.776 571.88,43.112 C581.624,42.552 590.024,41.824 596.968,40.984 C596.576,40.368 596.24,39.808 595.904,39.248 C592.768,34.04 589.912,29.84 587.392,26.704 L592.32,23.176 Z M661.088,1 C663.776,3.408 665.848,5.928 667.304,8.504 L664,10.912 C662.376,8.112 660.416,5.592 658.064,3.352 L661.088,1 Z M654.648,3.464 C657.168,5.704 659.24,8.28 660.808,11.08 L657.56,13.376 C655.992,10.632 653.976,8.112 651.568,5.816 L654.648,3.464 Z M620.376,13.824 L637.288,13.824 C637.456,10.856 637.568,7.608 637.624,4.08 L643.784,4.08 C643.728,7.72 643.616,10.968 643.504,13.824 L661.704,13.824 L660.864,34.6 C660.64,40.144 659.8,44.064 658.344,46.36 C656.608,49.048 653.64,50.392 649.44,50.392 C646.92,50.392 644.344,50.168 641.768,49.72 L641.768,43.952 C644.624,44.512 647.144,44.792 649.384,44.792 C651.12,44.792 652.464,43.784 653.416,41.824 C654.256,39.976 654.76,37.288 654.928,33.704 L655.488,19.592 L643.056,19.592 C642.888,20.88 642.72,22.056 642.608,23.12 C641.6,29.168 639.696,34.264 636.896,38.464 C633.648,43.168 628.832,47.256 622.504,50.784 L618.416,46.192 C622.112,44.12 625.192,41.88 627.712,39.528 C630.568,36.784 632.696,33.816 634.096,30.68 C635.216,27.936 636.112,24.24 636.728,19.592 L620.376,19.592 L620.376,13.824 Z M711.04,4.024 L715.688,8.112 C711.32,12.76 706.224,17.24 700.288,21.496 L700.288,50.896 L694.016,50.896 L694.016,25.696 C687.856,29.504 681.584,32.752 675.2,35.44 L672.008,30.176 C678.952,27.264 686.064,23.4 693.344,18.528 C700.624,13.6 706.504,8.784 711.04,4.024 Z M768.44,4.584 C771.128,6.936 773.2,9.456 774.656,12.088 L771.352,14.496 C769.728,11.64 767.768,9.12 765.416,6.936 L768.44,4.584 Z M762.784,8.504 C765.304,10.744 767.376,13.32 768.944,16.12 L765.696,18.416 C764.128,15.616 762.112,13.096 759.704,10.856 L762.784,8.504 Z M741,4.36 L747.272,4.36 L747.272,21.496 C751.752,22.28 756.232,23.4 760.712,24.912 C764.8,26.256 768.888,27.88 773.032,29.84 L770.344,35.048 C766.648,33.368 763.008,31.912 759.368,30.68 C755.28,29.336 751.248,28.272 747.272,27.544 L747.272,51.512 L741,51.512 L741,4.36 Z" id="canada"></path>
        </g>
        <g id="Group-D" transform="translate(56.000000, 0.000000)"></g>
    </g>
</svg>