<?xml version="1.0" encoding="UTF-8"?>
<svg width="775px" height="53px" viewBox="0 0 775 53" version="1.1" xmlns="http://www.w3.org/2000/svg" xmlns:xlink="http://www.w3.org/1999/xlink">
    <!-- Generator: Sketch 57.1 (83088) - https://sketch.com -->
    <title>Top-Type</title>
    <desc>Created with Sketch.</desc>
    <g id="Top-Type" stroke="none" stroke-width="1" fill="none" fill-rule="evenodd">
        <g id="Group-C" transform="translate(111.000000, 0.000000)" fill="#FF4E36" fill-rule="nonzero">
            <path d="M39.896,3.984 L44.544,8.072 C40.176,12.72 35.08,17.2 29.144,21.456 L29.144,50.856 L22.872,50.856 L22.872,25.656 C16.712,29.464 10.44,32.712 4.056,35.4 L0.864,30.136 C7.808,27.224 14.92,23.36 22.2,18.488 C29.48,13.56 35.36,8.744 39.896,3.984 Z M61.344,6.896 C66.832,9.696 72.768,13.392 79.152,18.04 L75.232,22.8 C68.96,18.32 63.304,14.792 58.264,12.16 L61.344,6.896 Z M98.92,14.736 L104.744,16.976 C100.824,25.88 95.672,33.16 89.232,38.872 C82.288,44.864 73.944,49.064 64.088,51.416 L61.232,45.872 C69.8,43.856 77.416,40.104 84.136,34.504 C90.576,29.016 95.504,22.464 98.92,14.736 Z M158.616,0.232 C161.304,2.64 163.376,5.16 164.832,7.736 L161.528,10.144 C159.904,7.344 157.944,4.824 155.592,2.584 L158.616,0.232 Z M150.272,0.344 C152.792,2.584 154.864,5.16 156.432,7.96 L153.184,10.256 C151.616,7.512 149.6,4.992 147.192,2.696 L150.272,0.344 Z M131.624,3.704 L137.392,5.552 C136.72,7.4 135.992,9.192 135.208,10.872 L152.904,10.872 L156.544,12.776 C154.864,22.24 151.392,30.192 146.016,36.688 C140.64,43.016 133.528,47.888 124.624,51.36 L121.32,46.096 C128.544,43.408 134.424,39.824 139.016,35.344 C144.168,30.304 147.64,24.088 149.432,16.696 L132.128,16.696 C131.344,17.872 130.616,18.992 129.832,20.056 C126.864,23.976 123.056,27.784 118.352,31.368 L114.04,27.28 C118.296,23.92 121.936,20.336 124.848,16.528 C127.816,12.496 130.056,8.24 131.624,3.704 Z M177.656,7.288 L209.184,7.288 L209.184,13.056 L177.656,13.056 L177.656,7.288 Z M172.952,18.992 L211.592,18.992 L214.896,21.512 C212.32,29.576 208.96,35.848 204.704,40.216 C199.776,45.2 192.888,48.84 183.984,51.08 L180.848,45.592 C188.128,43.8 193.84,41.168 198.096,37.752 C202.072,34.504 205.152,30.136 207.28,24.76 L172.952,24.76 L172.952,18.992 Z M229.344,6.896 C234.832,9.696 240.768,13.392 247.152,18.04 L243.232,22.8 C236.96,18.32 231.304,14.792 226.264,12.16 L229.344,6.896 Z M266.92,14.736 L272.744,16.976 C268.824,25.88 263.672,33.16 257.232,38.872 C250.288,44.864 241.944,49.064 232.088,51.416 L229.232,45.872 C237.8,43.856 245.416,40.104 252.136,34.504 C258.576,29.016 263.504,22.464 266.92,14.736 Z M321.296,4.544 C323.984,6.896 326.056,9.416 327.512,12.048 L324.208,14.456 C322.584,11.6 320.624,9.08 318.272,6.896 L321.296,4.544 Z M315.64,8.464 C318.16,10.704 320.232,13.28 321.8,16.08 L318.552,18.376 C316.984,15.576 314.968,13.056 312.56,10.816 L315.64,8.464 Z M293.856,4.32 L300.128,4.32 L300.128,21.456 C304.608,22.24 309.088,23.36 313.568,24.872 C317.656,26.216 321.744,27.84 325.888,29.8 L323.2,35.008 C319.504,33.328 315.864,31.872 312.224,30.64 C308.136,29.296 304.104,28.232 300.128,27.504 L300.128,51.472 L293.856,51.472 L293.856,4.32 Z M375.392,4.656 L378.696,10.032 C374.272,11.544 369.624,12.832 364.808,13.896 L364.808,22.856 L384.912,22.856 L384.912,28.624 L364.808,28.624 C364.584,33.776 363.072,38.312 360.216,42.232 C357.528,45.816 353.664,48.896 348.624,51.472 L344.48,46.6 C348.624,44.416 351.872,41.952 354.224,39.208 C356.856,36.072 358.312,32.544 358.536,28.624 L337.816,28.624 L337.816,22.856 L358.536,22.856 L358.536,15.072 C353.496,15.912 348.176,16.528 342.688,16.864 L341.176,11.208 C347.448,10.76 353.552,10.032 359.376,8.912 C364.92,7.792 370.24,6.392 375.392,4.656 Z M395.496,24.928 L438.56,24.928 L438.56,30.696 L395.496,30.696 L395.496,24.928 Z M481.176,23.136 C485.88,28.68 491.424,37.472 497.752,49.512 L492.264,52.536 C491.088,50.296 489.968,48.224 488.848,46.264 C477.648,47.832 464.208,48.84 448.584,49.344 L448.36,43.688 L453.96,43.464 C457.432,33.944 462.36,20.784 468.856,3.928 L474.848,5.888 C470.704,16.304 466,28.736 460.736,43.072 C470.48,42.512 478.88,41.784 485.824,40.944 C485.432,40.328 485.096,39.768 484.76,39.208 C481.624,34 478.768,29.8 476.248,26.664 L481.176,23.136 Z M549.944,0.96 C552.632,3.368 554.704,5.888 556.16,8.464 L552.856,10.872 C551.232,8.072 549.272,5.552 546.92,3.312 L549.944,0.96 Z M543.504,3.424 C546.024,5.664 548.096,8.24 549.664,11.04 L546.416,13.336 C544.848,10.592 542.832,8.072 540.424,5.776 L543.504,3.424 Z M509.232,13.784 L526.144,13.784 C526.312,10.816 526.424,7.568 526.48,4.04 L532.64,4.04 C532.584,7.68 532.472,10.928 532.36,13.784 L550.56,13.784 L549.72,34.56 C549.496,40.104 548.656,44.024 547.2,46.32 C545.464,49.008 542.496,50.352 538.296,50.352 C535.776,50.352 533.2,50.128 530.624,49.68 L530.624,43.912 C533.48,44.472 536,44.752 538.24,44.752 C539.976,44.752 541.32,43.744 542.272,41.784 C543.112,39.936 543.616,37.248 543.784,33.664 L544.344,19.552 L531.912,19.552 C531.744,20.84 531.576,22.016 531.464,23.08 C530.456,29.128 528.552,34.224 525.752,38.424 C522.504,43.128 517.688,47.216 511.36,50.744 L507.272,46.152 C510.968,44.08 514.048,41.84 516.568,39.488 C519.424,36.744 521.552,33.776 522.952,30.64 C524.072,27.896 524.968,24.2 525.584,19.552 L509.232,19.552 L509.232,13.784 Z M599.896,3.984 L604.544,8.072 C600.176,12.72 595.08,17.2 589.144,21.456 L589.144,50.856 L582.872,50.856 L582.872,25.656 C576.712,29.464 570.44,32.712 564.056,35.4 L560.864,30.136 C567.808,27.224 574.92,23.36 582.2,18.488 C589.48,13.56 595.36,8.744 599.896,3.984 Z M657.296,4.544 C659.984,6.896 662.056,9.416 663.512,12.048 L660.208,14.456 C658.584,11.6 656.624,9.08 654.272,6.896 L657.296,4.544 Z M651.64,8.464 C654.16,10.704 656.232,13.28 657.8,16.08 L654.552,18.376 C652.984,15.576 650.968,13.056 648.56,10.816 L651.64,8.464 Z M629.856,4.32 L636.128,4.32 L636.128,21.456 C640.608,22.24 645.088,23.36 649.568,24.872 C653.656,26.216 657.744,27.84 661.888,29.8 L659.2,35.008 C655.504,33.328 651.864,31.872 648.224,30.64 C644.136,29.296 640.104,28.232 636.128,27.504 L636.128,51.472 L629.856,51.472 L629.856,4.32 Z" id="england"></path>
        </g>
        <g id="Group-D" transform="translate(56.000000, 0.000000)"></g>
    </g>
</svg>