<?xml version="1.0" encoding="UTF-8"?>
<svg width="775px" height="53px" viewBox="0 0 775 53" version="1.1" xmlns="http://www.w3.org/2000/svg" xmlns:xlink="http://www.w3.org/1999/xlink">
    <!-- Generator: Sketch 57.1 (83088) - https://sketch.com -->
    <title>Top-Type</title>
    <desc>Created with Sketch.</desc>
    <g id="Top-Type" stroke="none" stroke-width="1" fill="none" fill-rule="evenodd">
        <g id="Group-A" transform="translate(55.000000, 1.000000)" fill="#36AA46" fill-rule="nonzero">
            <path d="M59.416,6.944 L101.752,6.944 L104.888,9.744 C102.76,14 100.688,17.528 98.728,20.328 C96.152,23.8 93.24,26.824 89.88,29.456 L85.4,25.144 C90.328,21.28 93.912,17.136 96.152,12.712 L59.416,12.712 L59.416,6.944 Z M77.112,16.856 L83.384,16.856 L83.384,24.416 C83.384,30.688 82.152,35.896 79.688,40.04 C77.112,44.296 73.024,47.768 67.368,50.4 L63.448,45.584 C68.376,43.232 71.848,40.432 73.976,37.296 C76.048,34.048 77.112,29.792 77.112,24.416 L77.112,16.856 Z M151.928,3.024 L156.576,7.112 C152.208,11.76 147.112,16.24 141.176,20.496 L141.176,49.896 L134.904,49.896 L134.904,24.696 C128.744,28.504 122.472,31.752 116.088,34.44 L112.896,29.176 C119.84,26.264 126.952,22.4 134.232,17.528 C141.512,12.6 147.392,7.784 151.928,3.024 Z M194.824,5.544 L201.096,5.544 L201.096,40.768 C206.64,36.568 211.4,31.472 215.432,25.536 L220.472,29.064 C217.728,32.984 214.424,36.792 210.616,40.376 C206.472,44.184 202.44,47.096 198.632,49 L194.824,46.928 L194.824,5.544 Z M178.864,6.776 L185.136,6.776 L185.136,24.024 C185.136,30.352 184.24,35.448 182.56,39.256 C180.656,43.344 177.352,47.096 172.592,50.456 L168.616,45.808 C172.536,42.896 175.28,39.76 176.792,36.512 C178.136,33.488 178.864,29.288 178.864,24.024 L178.864,6.776 Z M233.688,6.328 L265.216,6.328 L265.216,12.096 L233.688,12.096 L233.688,6.328 Z M228.984,18.032 L267.624,18.032 L270.928,20.552 C268.352,28.616 264.992,34.888 260.736,39.256 C255.808,44.24 248.92,47.88 240.016,50.12 L236.88,44.632 C244.16,42.84 249.872,40.208 254.128,36.792 C258.104,33.544 261.184,29.176 263.312,23.8 L228.984,23.8 L228.984,18.032 Z M285.376,5.936 C290.864,8.736 296.8,12.432 303.184,17.08 L299.264,21.84 C292.992,17.36 287.336,13.832 282.296,11.2 L285.376,5.936 Z M322.952,13.776 L328.776,16.016 C324.856,24.92 319.704,32.2 313.264,37.912 C306.32,43.904 297.976,48.104 288.12,50.456 L285.264,44.912 C293.832,42.896 301.448,39.144 308.168,33.544 C314.608,28.056 319.536,21.504 322.952,13.776 Z M377.328,3.584 C380.016,5.936 382.088,8.456 383.544,11.088 L380.24,13.496 C378.616,10.64 376.656,8.12 374.304,5.936 L377.328,3.584 Z M371.672,7.504 C374.192,9.744 376.264,12.32 377.832,15.12 L374.584,17.416 C373.016,14.616 371,12.096 368.592,9.856 L371.672,7.504 Z M349.888,3.36 L356.16,3.36 L356.16,20.496 C360.64,21.28 365.12,22.4 369.6,23.912 C373.688,25.256 377.776,26.88 381.92,28.84 L379.232,34.048 C375.536,32.368 371.896,30.912 368.256,29.68 C364.168,28.336 360.136,27.272 356.16,26.544 L356.16,50.512 L349.888,50.512 L349.888,3.36 Z M431.424,3.696 L434.728,9.072 C430.304,10.584 425.656,11.872 420.84,12.936 L420.84,21.896 L440.944,21.896 L440.944,27.664 L420.84,27.664 C420.616,32.816 419.104,37.352 416.248,41.272 C413.56,44.856 409.696,47.936 404.656,50.512 L400.512,45.64 C404.656,43.456 407.904,40.992 410.256,38.248 C412.888,35.112 414.344,31.584 414.568,27.664 L393.848,27.664 L393.848,21.896 L414.568,21.896 L414.568,14.112 C409.528,14.952 404.208,15.568 398.72,15.904 L397.208,10.248 C403.48,9.8 409.584,9.072 415.408,7.952 C420.952,6.832 426.272,5.432 431.424,3.696 Z M451.528,23.968 L494.592,23.968 L494.592,29.736 L451.528,29.736 L451.528,23.968 Z M537.208,22.176 C541.912,27.72 547.456,36.512 553.784,48.552 L548.296,51.576 C547.12,49.336 546,47.264 544.88,45.304 C533.68,46.872 520.24,47.88 504.616,48.384 L504.392,42.728 L509.992,42.504 C513.464,32.984 518.392,19.824 524.888,2.968 L530.88,4.928 C526.736,15.344 522.032,27.776 516.768,42.112 C526.512,41.552 534.912,40.824 541.856,39.984 C541.464,39.368 541.128,38.808 540.792,38.248 C537.656,33.04 534.8,28.84 532.28,25.704 L537.208,22.176 Z M605.976,0 C608.664,2.408 610.736,4.928 612.192,7.504 L608.888,9.912 C607.264,7.112 605.304,4.592 602.952,2.352 L605.976,0 Z M599.536,2.464 C602.056,4.704 604.128,7.28 605.696,10.08 L602.448,12.376 C600.88,9.632 598.864,7.112 596.456,4.816 L599.536,2.464 Z M565.264,12.824 L582.176,12.824 C582.344,9.856 582.456,6.608 582.512,3.08 L588.672,3.08 C588.616,6.72 588.504,9.968 588.392,12.824 L606.592,12.824 L605.752,33.6 C605.528,39.144 604.688,43.064 603.232,45.36 C601.496,48.048 598.528,49.392 594.328,49.392 C591.808,49.392 589.232,49.168 586.656,48.72 L586.656,42.952 C589.512,43.512 592.032,43.792 594.272,43.792 C596.008,43.792 597.352,42.784 598.304,40.824 C599.144,38.976 599.648,36.288 599.816,32.704 L600.376,18.592 L587.944,18.592 C587.776,19.88 587.608,21.056 587.496,22.12 C586.488,28.168 584.584,33.264 581.784,37.464 C578.536,42.168 573.72,46.256 567.392,49.784 L563.304,45.192 C567,43.12 570.08,40.88 572.6,38.528 C575.456,35.784 577.584,32.816 578.984,29.68 C580.104,26.936 581,23.24 581.616,18.592 L565.264,18.592 L565.264,12.824 Z M655.928,3.024 L660.576,7.112 C656.208,11.76 651.112,16.24 645.176,20.496 L645.176,49.896 L638.904,49.896 L638.904,24.696 C632.744,28.504 626.472,31.752 620.088,34.44 L616.896,29.176 C623.84,26.264 630.952,22.4 638.232,17.528 C645.512,12.6 651.392,7.784 655.928,3.024 Z M713.328,3.584 C716.016,5.936 718.088,8.456 719.544,11.088 L716.24,13.496 C714.616,10.64 712.656,8.12 710.304,5.936 L713.328,3.584 Z M707.672,7.504 C710.192,9.744 712.264,12.32 713.832,15.12 L710.584,17.416 C709.016,14.616 707,12.096 704.592,9.856 L707.672,7.504 Z M685.888,3.36 L692.16,3.36 L692.16,20.496 C696.64,21.28 701.12,22.4 705.6,23.912 C709.688,25.256 713.776,26.88 717.92,28.84 L715.232,34.048 C711.536,32.368 707.896,30.912 704.256,29.68 C700.168,28.336 696.136,27.272 692.16,26.544 L692.16,50.512 L685.888,50.512 L685.888,3.36 Z" id="ireland"></path>
        </g>
        <g id="Group-B"></g>
        <g id="Group-D" transform="translate(56.000000, 0.000000)"></g>
    </g>
</svg>