<?xml version="1.0" encoding="UTF-8"?>
<svg width="775px" height="53px" viewBox="0 0 775 53" version="1.1" xmlns="http://www.w3.org/2000/svg" xmlns:xlink="http://www.w3.org/1999/xlink">
    <!-- Generator: Sketch 57.1 (83088) - https://sketch.com -->
    <title>Top-Type</title>
    <desc>Created with Sketch.</desc>
    <g id="Top-Type" stroke="none" stroke-width="1" fill="none" fill-rule="evenodd">
        <g id="Group-B" fill="#2F52AD" fill-rule="nonzero">
            <path d="M263.04,4.024 L267.688,8.112 C263.32,12.76 258.224,17.24 252.288,21.496 L252.288,50.896 L246.016,50.896 L246.016,25.696 C239.856,29.504 233.584,32.752 227.2,35.44 L224.008,30.176 C230.952,27.264 238.064,23.4 245.344,18.528 C252.624,13.6 258.504,8.784 263.04,4.024 Z M298.768,3.52 L304.536,5.368 C303.976,6.936 303.36,8.504 302.688,10.072 L320.44,10.072 L324.08,12.032 C322.568,20.992 319.096,28.832 313.664,35.608 C307.952,42.664 300.616,47.928 291.6,51.4 L288.296,46.136 C295.912,43.224 302.24,39.136 307.28,33.816 C307.336,33.704 307.392,33.648 307.448,33.592 C306.104,32.64 304.704,31.744 303.36,30.904 C300.672,29.168 297.928,27.656 295.128,26.312 L298.88,21.832 C301.624,23.232 304.368,24.744 307.056,26.368 C308.4,27.208 309.8,28.104 311.144,29 C313.888,24.968 315.848,20.6 317.08,15.84 L299.664,15.84 C298.768,17.296 297.816,18.696 296.808,20.096 C293.672,24.296 289.92,28.048 285.552,31.408 L281.24,27.32 C285.496,23.96 289.08,20.32 291.992,16.456 C294.96,12.424 297.2,8.112 298.768,3.52 Z M370.504,6.432 L376.776,6.432 L376.776,24.8 C376.776,31.856 374.928,37.568 371.344,42.048 C367.648,46.584 362.048,49.776 354.544,51.624 L351.632,46.08 C358.52,44.456 363.504,41.712 366.528,37.848 C369.16,34.432 370.504,29.896 370.504,24.296 L370.504,6.432 Z M343.512,7.608 L349.784,7.608 L349.784,34.768 L343.512,34.768 L343.512,7.608 Z M394.528,7.944 L436.864,7.944 L440,10.744 C437.872,15 435.8,18.528 433.84,21.328 C431.264,24.8 428.352,27.824 424.992,30.456 L420.512,26.144 C425.44,22.28 429.024,18.136 431.264,13.712 L394.528,13.712 L394.528,7.944 Z M412.224,17.856 L418.496,17.856 L418.496,25.416 C418.496,31.688 417.264,36.896 414.8,41.04 C412.224,45.296 408.136,48.768 402.48,51.4 L398.56,46.584 C403.488,44.232 406.96,41.432 409.088,38.296 C411.16,35.048 412.224,30.792 412.224,25.416 L412.224,17.856 Z M486.536,4.696 L489.84,10.072 C485.416,11.584 480.768,12.872 475.952,13.936 L475.952,22.896 L496.056,22.896 L496.056,28.664 L475.952,28.664 C475.728,33.816 474.216,38.352 471.36,42.272 C468.672,45.856 464.808,48.936 459.768,51.512 L455.624,46.64 C459.768,44.456 463.016,41.992 465.368,39.248 C468,36.112 469.456,32.584 469.68,28.664 L448.96,28.664 L448.96,22.896 L469.68,22.896 L469.68,15.112 C464.64,15.952 459.32,16.568 453.832,16.904 L452.32,11.248 C458.592,10.8 464.696,10.072 470.52,8.952 C476.064,7.832 481.384,6.432 486.536,4.696 Z M506.64,24.968 L549.704,24.968 L549.704,30.736 L506.64,30.736 L506.64,24.968 Z M592.32,23.176 C597.024,28.72 602.568,37.512 608.896,49.552 L603.408,52.576 C602.232,50.336 601.112,48.264 599.992,46.304 C588.792,47.872 575.352,48.88 559.728,49.384 L559.504,43.728 L565.104,43.504 C568.576,33.984 573.504,20.824 580,3.968 L585.992,5.928 C581.848,16.344 577.144,28.776 571.88,43.112 C581.624,42.552 590.024,41.824 596.968,40.984 C596.576,40.368 596.24,39.808 595.904,39.248 C592.768,34.04 589.912,29.84 587.392,26.704 L592.32,23.176 Z M661.088,1 C663.776,3.408 665.848,5.928 667.304,8.504 L664,10.912 C662.376,8.112 660.416,5.592 658.064,3.352 L661.088,1 Z M654.648,3.464 C657.168,5.704 659.24,8.28 660.808,11.08 L657.56,13.376 C655.992,10.632 653.976,8.112 651.568,5.816 L654.648,3.464 Z M620.376,13.824 L637.288,13.824 C637.456,10.856 637.568,7.608 637.624,4.08 L643.784,4.08 C643.728,7.72 643.616,10.968 643.504,13.824 L661.704,13.824 L660.864,34.6 C660.64,40.144 659.8,44.064 658.344,46.36 C656.608,49.048 653.64,50.392 649.44,50.392 C646.92,50.392 644.344,50.168 641.768,49.72 L641.768,43.952 C644.624,44.512 647.144,44.792 649.384,44.792 C651.12,44.792 652.464,43.784 653.416,41.824 C654.256,39.976 654.76,37.288 654.928,33.704 L655.488,19.592 L643.056,19.592 C642.888,20.88 642.72,22.056 642.608,23.12 C641.6,29.168 639.696,34.264 636.896,38.464 C633.648,43.168 628.832,47.256 622.504,50.784 L618.416,46.192 C622.112,44.12 625.192,41.88 627.712,39.528 C630.568,36.784 632.696,33.816 634.096,30.68 C635.216,27.936 636.112,24.24 636.728,19.592 L620.376,19.592 L620.376,13.824 Z M711.04,4.024 L715.688,8.112 C711.32,12.76 706.224,17.24 700.288,21.496 L700.288,50.896 L694.016,50.896 L694.016,25.696 C687.856,29.504 681.584,32.752 675.2,35.44 L672.008,30.176 C678.952,27.264 686.064,23.4 693.344,18.528 C700.624,13.6 706.504,8.784 711.04,4.024 Z M768.44,4.584 C771.128,6.936 773.2,9.456 774.656,12.088 L771.352,14.496 C769.728,11.64 767.768,9.12 765.416,6.936 L768.44,4.584 Z M762.784,8.504 C765.304,10.744 767.376,13.32 768.944,16.12 L765.696,18.416 C764.128,15.616 762.112,13.096 759.704,10.856 L762.784,8.504 Z M741,4.36 L747.272,4.36 L747.272,21.496 C751.752,22.28 756.232,23.4 760.712,24.912 C764.8,26.256 768.888,27.88 773.032,29.84 L770.344,35.048 C766.648,33.368 763.008,31.912 759.368,30.68 C755.28,29.336 751.248,28.272 747.272,27.544 L747.272,51.512 L741,51.512 L741,4.36 Z" id="italy"></path>
        </g>
        <g id="Group-D" transform="translate(56.000000, 0.000000)"></g>
    </g>
</svg>