<?xml version="1.0" encoding="UTF-8"?>
<svg width="775px" height="52px" viewBox="0 0 775 52" version="1.1" xmlns="http://www.w3.org/2000/svg" xmlns:xlink="http://www.w3.org/1999/xlink">
    <!-- Generator: Sketch 57.1 (83088) - https://sketch.com -->
    <title>Top-Type</title>
    <desc>Created with Sketch.</desc>
    <g id="Top-Type" stroke="none" stroke-width="1" fill="none" fill-rule="evenodd">
        <path d="M378.76,2.76 L378.76,52.6 L372.88,52.6 L372.88,48.736 L348.184,48.736 L348.184,52.656 L342.304,52.656 L342.304,2.76 L378.76,2.76 Z M348.184,43.024 L372.88,43.024 L372.88,27.96 L348.184,27.96 L348.184,43.024 Z M348.184,22.248 L372.88,22.248 L372.88,8.472 L348.184,8.472 L348.184,22.248 Z M391.752,10.656 L413.032,10.656 L413.032,1.136 L418.968,1.136 L418.968,10.656 L440.192,10.656 L440.192,16.312 L423.336,16.312 C427.032,24.544 433.304,31.88 442.152,38.32 L438.176,43.36 C429.048,35.352 422.664,26.392 418.968,16.48 L418.968,36.36 L430.336,36.36 L430.336,42.016 L418.968,42.016 L418.968,52.88 L413.032,52.88 L413.032,42.016 L402.112,42.016 L402.112,36.36 L413.032,36.36 L413.032,16.48 C409,27.736 402.392,36.92 393.096,44.088 L389.68,38.6 C398.304,32.776 404.576,25.328 408.608,16.312 L391.752,16.312 L391.752,10.656 Z M486.392,3.656 L489.696,9.032 C485.272,10.544 480.624,11.832 475.808,12.896 L475.808,21.856 L495.912,21.856 L495.912,27.624 L475.808,27.624 C475.584,32.776 474.072,37.312 471.216,41.232 C468.528,44.816 464.664,47.896 459.624,50.472 L455.48,45.6 C459.624,43.416 462.872,40.952 465.224,38.208 C467.856,35.072 469.312,31.544 469.536,27.624 L448.816,27.624 L448.816,21.856 L469.536,21.856 L469.536,14.072 C464.496,14.912 459.176,15.528 453.688,15.864 L452.176,10.208 C458.448,9.76 464.552,9.032 470.376,7.912 C475.92,6.792 481.24,5.392 486.392,3.656 Z M506.496,23.928 L549.56,23.928 L549.56,29.696 L506.496,29.696 L506.496,23.928 Z M592.176,22.136 C596.88,27.68 602.424,36.472 608.752,48.512 L603.264,51.536 C602.088,49.296 600.968,47.224 599.848,45.264 C588.648,46.832 575.208,47.84 559.584,48.344 L559.36,42.688 L564.96,42.464 C568.432,32.944 573.36,19.784 579.856,2.928 L585.848,4.888 C581.704,15.304 577,27.736 571.736,42.072 C581.48,41.512 589.88,40.784 596.824,39.944 C596.432,39.328 596.096,38.768 595.76,38.208 C592.624,33 589.768,28.8 587.248,25.664 L592.176,22.136 Z M660.944,-0.04 C663.632,2.368 665.704,4.888 667.16,7.464 L663.856,9.872 C662.232,7.072 660.272,4.552 657.92,2.312 L660.944,-0.04 Z M654.504,2.424 C657.024,4.664 659.096,7.24 660.664,10.04 L657.416,12.336 C655.848,9.592 653.832,7.072 651.424,4.776 L654.504,2.424 Z M620.232,12.784 L637.144,12.784 C637.312,9.816 637.424,6.568 637.48,3.04 L643.64,3.04 C643.584,6.68 643.472,9.928 643.36,12.784 L661.56,12.784 L660.72,33.56 C660.496,39.104 659.656,43.024 658.2,45.32 C656.464,48.008 653.496,49.352 649.296,49.352 C646.776,49.352 644.2,49.128 641.624,48.68 L641.624,42.912 C644.48,43.472 647,43.752 649.24,43.752 C650.976,43.752 652.32,42.744 653.272,40.784 C654.112,38.936 654.616,36.248 654.784,32.664 L655.344,18.552 L642.912,18.552 C642.744,19.84 642.576,21.016 642.464,22.08 C641.456,28.128 639.552,33.224 636.752,37.424 C633.504,42.128 628.688,46.216 622.36,49.744 L618.272,45.152 C621.968,43.08 625.048,40.84 627.568,38.488 C630.424,35.744 632.552,32.776 633.952,29.64 C635.072,26.896 635.968,23.2 636.584,18.552 L620.232,18.552 L620.232,12.784 Z M710.896,2.984 L715.544,7.072 C711.176,11.72 706.08,16.2 700.144,20.456 L700.144,49.856 L693.872,49.856 L693.872,24.656 C687.712,28.464 681.44,31.712 675.056,34.4 L671.864,29.136 C678.808,26.224 685.92,22.36 693.2,17.488 C700.48,12.56 706.36,7.744 710.896,2.984 Z M768.296,3.544 C770.984,5.896 773.056,8.416 774.512,11.048 L771.208,13.456 C769.584,10.6 767.624,8.08 765.272,5.896 L768.296,3.544 Z M762.64,7.464 C765.16,9.704 767.232,12.28 768.8,15.08 L765.552,17.376 C763.984,14.576 761.968,12.056 759.56,9.816 L762.64,7.464 Z M740.856,3.32 L747.128,3.32 L747.128,20.456 C751.608,21.24 756.088,22.36 760.568,23.872 C764.656,25.216 768.744,26.84 772.888,28.8 L770.2,34.008 C766.504,32.328 762.864,30.872 759.224,29.64 C755.136,28.296 751.104,27.232 747.128,26.504 L747.128,50.472 L740.856,50.472 L740.856,3.32 Z" id="日本チームガイド" fill="#AB0613" fill-rule="nonzero"></path>
    </g>
</svg>