<?xml version="1.0" encoding="UTF-8"?>
<svg width="775px" height="53px" viewBox="0 0 775 53" version="1.1" xmlns="http://www.w3.org/2000/svg" xmlns:xlink="http://www.w3.org/1999/xlink">
    <!-- Generator: Sketch 57.1 (83088) - https://sketch.com -->
    <title>Top-Type</title>
    <desc>Created with Sketch.</desc>
    <g id="Top-Type" stroke="none" stroke-width="1" fill="none" fill-rule="evenodd">
        <g id="Group-B" fill="#2F52AD" fill-rule="nonzero">
            <path d="M223.84,18.304 L246.072,18.304 L246.072,4.136 L252.344,4.136 L252.344,18.304 L272.448,18.304 L272.448,24.072 L252.344,24.072 L252.344,25.08 C252.344,31.576 251.056,36.952 248.48,41.32 C245.904,45.688 241.872,49.272 236.272,52.128 L232.128,47.144 C237.112,44.68 240.696,41.712 242.88,38.296 C245.008,34.824 246.072,30.456 246.072,25.08 L246.072,24.072 L223.84,24.072 L223.84,18.304 Z M287.12,5.816 C298.32,6.88 310.248,8.672 322.904,11.192 L321.448,17.408 C309.912,14.832 298.096,12.984 286,11.864 L287.12,5.816 Z M289.136,20.656 C297.48,21.664 307.952,23.792 320.552,26.984 L318.984,33.144 C308.064,30.12 297.704,27.936 287.96,26.648 L289.136,20.656 Z M284.936,37.4 C298.04,38.632 311.256,41.376 324.528,45.632 L322.456,51.68 C310.248,47.536 297.368,44.792 283.76,43.504 L284.936,37.4 Z M381.704,0.72 C384.392,3.128 386.464,5.648 387.92,8.224 L384.616,10.632 C382.992,7.832 381.032,5.312 378.68,3.072 L381.704,0.72 Z M376.44,4.248 C378.96,6.488 381.032,9.064 382.6,11.864 L379.352,14.16 C377.784,11.416 375.768,8.896 373.36,6.6 L376.44,4.248 Z M376.496,13.656 L379.912,18.472 C371.624,22.896 361.432,26.816 349.224,30.176 L349.224,37.68 C349.224,39.92 349.896,41.488 351.296,42.272 C353.032,43.28 356.672,43.784 362.16,43.784 C368.376,43.784 374.592,43.392 380.808,42.608 L380.752,48.6 C370.448,49.16 364.4,49.496 362.72,49.496 C354.88,49.496 349.728,48.768 347.152,47.424 C344.352,45.912 343.008,42.832 343.008,38.184 C343.008,25.528 343.064,14.776 343.232,5.816 L349.392,5.816 L349.28,24.128 C359.248,21.552 368.32,18.024 376.496,13.656 Z M394.528,7.944 L436.864,7.944 L440,10.744 C437.872,15 435.8,18.528 433.84,21.328 C431.264,24.8 428.352,27.824 424.992,30.456 L420.512,26.144 C425.44,22.28 429.024,18.136 431.264,13.712 L394.528,13.712 L394.528,7.944 Z M412.224,17.856 L418.496,17.856 L418.496,25.416 C418.496,31.688 417.264,36.896 414.8,41.04 C412.224,45.296 408.136,48.768 402.48,51.4 L398.56,46.584 C403.488,44.232 406.96,41.432 409.088,38.296 C411.16,35.048 412.224,30.792 412.224,25.416 L412.224,17.856 Z M486.536,4.696 L489.84,10.072 C485.416,11.584 480.768,12.872 475.952,13.936 L475.952,22.896 L496.056,22.896 L496.056,28.664 L475.952,28.664 C475.728,33.816 474.216,38.352 471.36,42.272 C468.672,45.856 464.808,48.936 459.768,51.512 L455.624,46.64 C459.768,44.456 463.016,41.992 465.368,39.248 C468,36.112 469.456,32.584 469.68,28.664 L448.96,28.664 L448.96,22.896 L469.68,22.896 L469.68,15.112 C464.64,15.952 459.32,16.568 453.832,16.904 L452.32,11.248 C458.592,10.8 464.696,10.072 470.52,8.952 C476.064,7.832 481.384,6.432 486.536,4.696 Z M506.64,24.968 L549.704,24.968 L549.704,30.736 L506.64,30.736 L506.64,24.968 Z M592.32,23.176 C597.024,28.72 602.568,37.512 608.896,49.552 L603.408,52.576 C602.232,50.336 601.112,48.264 599.992,46.304 C588.792,47.872 575.352,48.88 559.728,49.384 L559.504,43.728 L565.104,43.504 C568.576,33.984 573.504,20.824 580,3.968 L585.992,5.928 C581.848,16.344 577.144,28.776 571.88,43.112 C581.624,42.552 590.024,41.824 596.968,40.984 C596.576,40.368 596.24,39.808 595.904,39.248 C592.768,34.04 589.912,29.84 587.392,26.704 L592.32,23.176 Z M661.088,1 C663.776,3.408 665.848,5.928 667.304,8.504 L664,10.912 C662.376,8.112 660.416,5.592 658.064,3.352 L661.088,1 Z M654.648,3.464 C657.168,5.704 659.24,8.28 660.808,11.08 L657.56,13.376 C655.992,10.632 653.976,8.112 651.568,5.816 L654.648,3.464 Z M620.376,13.824 L637.288,13.824 C637.456,10.856 637.568,7.608 637.624,4.08 L643.784,4.08 C643.728,7.72 643.616,10.968 643.504,13.824 L661.704,13.824 L660.864,34.6 C660.64,40.144 659.8,44.064 658.344,46.36 C656.608,49.048 653.64,50.392 649.44,50.392 C646.92,50.392 644.344,50.168 641.768,49.72 L641.768,43.952 C644.624,44.512 647.144,44.792 649.384,44.792 C651.12,44.792 652.464,43.784 653.416,41.824 C654.256,39.976 654.76,37.288 654.928,33.704 L655.488,19.592 L643.056,19.592 C642.888,20.88 642.72,22.056 642.608,23.12 C641.6,29.168 639.696,34.264 636.896,38.464 C633.648,43.168 628.832,47.256 622.504,50.784 L618.416,46.192 C622.112,44.12 625.192,41.88 627.712,39.528 C630.568,36.784 632.696,33.816 634.096,30.68 C635.216,27.936 636.112,24.24 636.728,19.592 L620.376,19.592 L620.376,13.824 Z M711.04,4.024 L715.688,8.112 C711.32,12.76 706.224,17.24 700.288,21.496 L700.288,50.896 L694.016,50.896 L694.016,25.696 C687.856,29.504 681.584,32.752 675.2,35.44 L672.008,30.176 C678.952,27.264 686.064,23.4 693.344,18.528 C700.624,13.6 706.504,8.784 711.04,4.024 Z M768.44,4.584 C771.128,6.936 773.2,9.456 774.656,12.088 L771.352,14.496 C769.728,11.64 767.768,9.12 765.416,6.936 L768.44,4.584 Z M762.784,8.504 C765.304,10.744 767.376,13.32 768.944,16.12 L765.696,18.416 C764.128,15.616 762.112,13.096 759.704,10.856 L762.784,8.504 Z M741,4.36 L747.272,4.36 L747.272,21.496 C751.752,22.28 756.232,23.4 760.712,24.912 C764.8,26.256 768.888,27.88 773.032,29.84 L770.344,35.048 C766.648,33.368 763.008,31.912 759.368,30.68 C755.28,29.336 751.248,28.272 747.272,27.544 L747.272,51.512 L741,51.512 L741,4.36 Z" id="namibia"></path>
        </g>
        <g id="Group-D" transform="translate(56.000000, 0.000000)"></g>
    </g>
</svg>