<?xml version="1.0" encoding="UTF-8"?>
<svg width="775px" height="53px" viewBox="0 0 775 53" version="1.1" xmlns="http://www.w3.org/2000/svg" xmlns:xlink="http://www.w3.org/1999/xlink">
    <!-- Generator: Sketch 57.1 (83088) - https://sketch.com -->
    <title>Top-Type</title>
    <desc>Created with Sketch.</desc>
    <g id="Top-Type" stroke="none" stroke-width="1" fill="none" fill-rule="evenodd">
        <g id="Group-B" fill="#767676" fill-rule="nonzero">
            <path d="M4.768,11.64 L43.52,11.64 L43.52,17.408 L4.768,17.408 L4.768,11.64 Z M0.904,41.88 L47.384,41.88 L47.384,47.648 L0.904,47.648 L0.904,41.88 Z M65.752,20.488 L92.688,20.488 L90.896,42.776 L98.848,42.776 L98.848,48.32 L61.44,48.32 L61.44,42.776 L84.96,42.776 L86.304,26.032 L65.752,26.032 L65.752,20.488 Z M114.64,24.968 L157.704,24.968 L157.704,30.736 L114.64,30.736 L114.64,24.968 Z M210.624,1.056 C213.312,3.464 215.384,5.984 216.84,8.56 L213.536,10.968 C211.912,8.168 209.952,5.648 207.6,3.408 L210.624,1.056 Z M205.024,4.808 C207.544,7.048 209.616,9.624 211.184,12.424 L207.936,14.72 C206.368,11.976 204.352,9.456 201.944,7.16 L205.024,4.808 Z M176.352,5.872 C183.352,7.72 189.344,10.184 194.328,13.32 L190.912,18.192 C186.544,15.504 180.776,13.208 173.72,11.36 L176.352,5.872 Z M209.672,16.232 L215.496,18.472 C211.968,26.424 206.872,33.2 200.264,38.912 C193.04,45.072 184.64,49.216 175.12,51.456 L172.264,45.744 C181,43.728 188.728,39.976 195.504,34.544 C201.888,29.336 206.592,23.232 209.672,16.232 Z M171.424,18.192 C177.36,19.592 183.352,21.944 189.344,25.304 L186.096,30.568 C181.168,27.712 175.456,25.416 168.848,23.68 L171.424,18.192 Z M226.64,24.968 L269.704,24.968 L269.704,30.736 L226.64,30.736 L226.64,24.968 Z M288.8,7.328 L320.328,7.328 L320.328,13.096 L288.8,13.096 L288.8,7.328 Z M284.096,19.032 L322.736,19.032 L326.04,21.552 C323.464,29.616 320.104,35.888 315.848,40.256 C310.92,45.24 304.032,48.88 295.128,51.12 L291.992,45.632 C299.272,43.84 304.984,41.208 309.24,37.792 C313.216,34.544 316.296,30.176 318.424,24.8 L284.096,24.8 L284.096,19.032 Z M340.488,6.936 C345.976,9.736 351.912,13.432 358.296,18.08 L354.376,22.84 C348.104,18.36 342.448,14.832 337.408,12.2 L340.488,6.936 Z M378.064,14.776 L383.888,17.016 C379.968,25.92 374.816,33.2 368.376,38.912 C361.432,44.904 353.088,49.104 343.232,51.456 L340.376,45.912 C348.944,43.896 356.56,40.144 363.28,34.544 C369.72,29.056 374.648,22.504 378.064,14.776 Z M432.44,4.584 C435.128,6.936 437.2,9.456 438.656,12.088 L435.352,14.496 C433.728,11.64 431.768,9.12 429.416,6.936 L432.44,4.584 Z M426.784,8.504 C429.304,10.744 431.376,13.32 432.944,16.12 L429.696,18.416 C428.128,15.616 426.112,13.096 423.704,10.856 L426.784,8.504 Z M405,4.36 L411.272,4.36 L411.272,21.496 C415.752,22.28 420.232,23.4 424.712,24.912 C428.8,26.256 432.888,27.88 437.032,29.84 L434.344,35.048 C430.648,33.368 427.008,31.912 423.368,30.68 C419.28,29.336 415.248,28.272 411.272,27.544 L411.272,51.512 L405,51.512 L405,4.36 Z M486.536,4.696 L489.84,10.072 C485.416,11.584 480.768,12.872 475.952,13.936 L475.952,22.896 L496.056,22.896 L496.056,28.664 L475.952,28.664 C475.728,33.816 474.216,38.352 471.36,42.272 C468.672,45.856 464.808,48.936 459.768,51.512 L455.624,46.64 C459.768,44.456 463.016,41.992 465.368,39.248 C468,36.112 469.456,32.584 469.68,28.664 L448.96,28.664 L448.96,22.896 L469.68,22.896 L469.68,15.112 C464.64,15.952 459.32,16.568 453.832,16.904 L452.32,11.248 C458.592,10.8 464.696,10.072 470.52,8.952 C476.064,7.832 481.384,6.432 486.536,4.696 Z M506.64,24.968 L549.704,24.968 L549.704,30.736 L506.64,30.736 L506.64,24.968 Z M592.32,23.176 C597.024,28.72 602.568,37.512 608.896,49.552 L603.408,52.576 C602.232,50.336 601.112,48.264 599.992,46.304 C588.792,47.872 575.352,48.88 559.728,49.384 L559.504,43.728 L565.104,43.504 C568.576,33.984 573.504,20.824 580,3.968 L585.992,5.928 C581.848,16.344 577.144,28.776 571.88,43.112 C581.624,42.552 590.024,41.824 596.968,40.984 C596.576,40.368 596.24,39.808 595.904,39.248 C592.768,34.04 589.912,29.84 587.392,26.704 L592.32,23.176 Z M661.088,1 C663.776,3.408 665.848,5.928 667.304,8.504 L664,10.912 C662.376,8.112 660.416,5.592 658.064,3.352 L661.088,1 Z M654.648,3.464 C657.168,5.704 659.24,8.28 660.808,11.08 L657.56,13.376 C655.992,10.632 653.976,8.112 651.568,5.816 L654.648,3.464 Z M620.376,13.824 L637.288,13.824 C637.456,10.856 637.568,7.608 637.624,4.08 L643.784,4.08 C643.728,7.72 643.616,10.968 643.504,13.824 L661.704,13.824 L660.864,34.6 C660.64,40.144 659.8,44.064 658.344,46.36 C656.608,49.048 653.64,50.392 649.44,50.392 C646.92,50.392 644.344,50.168 641.768,49.72 L641.768,43.952 C644.624,44.512 647.144,44.792 649.384,44.792 C651.12,44.792 652.464,43.784 653.416,41.824 C654.256,39.976 654.76,37.288 654.928,33.704 L655.488,19.592 L643.056,19.592 C642.888,20.88 642.72,22.056 642.608,23.12 C641.6,29.168 639.696,34.264 636.896,38.464 C633.648,43.168 628.832,47.256 622.504,50.784 L618.416,46.192 C622.112,44.12 625.192,41.88 627.712,39.528 C630.568,36.784 632.696,33.816 634.096,30.68 C635.216,27.936 636.112,24.24 636.728,19.592 L620.376,19.592 L620.376,13.824 Z M711.04,4.024 L715.688,8.112 C711.32,12.76 706.224,17.24 700.288,21.496 L700.288,50.896 L694.016,50.896 L694.016,25.696 C687.856,29.504 681.584,32.752 675.2,35.44 L672.008,30.176 C678.952,27.264 686.064,23.4 693.344,18.528 C700.624,13.6 706.504,8.784 711.04,4.024 Z M768.44,4.584 C771.128,6.936 773.2,9.456 774.656,12.088 L771.352,14.496 C769.728,11.64 767.768,9.12 765.416,6.936 L768.44,4.584 Z M762.784,8.504 C765.304,10.744 767.376,13.32 768.944,16.12 L765.696,18.416 C764.128,15.616 762.112,13.096 759.704,10.856 L762.784,8.504 Z M741,4.36 L747.272,4.36 L747.272,21.496 C751.752,22.28 756.232,23.4 760.712,24.912 C764.8,26.256 768.888,27.88 773.032,29.84 L770.344,35.048 C766.648,33.368 763.008,31.912 759.368,30.68 C755.28,29.336 751.248,28.272 747.272,27.544 L747.272,51.512 L741,51.512 L741,4.36 Z" id="new-zealand"></path>
        </g>
        <g id="Group-D" transform="translate(56.000000, 0.000000)"></g>
    </g>
</svg>