<?xml version="1.0" encoding="UTF-8"?>
<svg width="775px" height="53px" viewBox="0 0 775 53" version="1.1" xmlns="http://www.w3.org/2000/svg" xmlns:xlink="http://www.w3.org/1999/xlink">
    <!-- Generator: Sketch 57.1 (83088) - https://sketch.com -->
    <title>Top-Type</title>
    <desc>Created with Sketch.</desc>
    <g id="Top-Type" stroke="none" stroke-width="1" fill="none" fill-rule="evenodd">
        <g id="Group-A" transform="translate(55.000000, 1.000000)" fill="#0084C6" fill-rule="nonzero">
            <path d="M223.72,13.608 L234.528,13.608 L234.528,3.136 L240.744,3.136 L240.744,13.608 L257.432,13.608 L257.432,2.464 L263.48,2.464 L263.48,13.608 L274.344,13.608 L274.344,19.376 L263.48,19.376 L263.48,25.592 C263.48,31.64 261.968,36.68 258.944,40.6 C255.808,44.632 250.88,47.936 244.104,50.456 L240.744,45.36 C246.68,43.176 250.936,40.6 253.512,37.632 C256.088,34.608 257.432,30.576 257.432,25.592 L257.432,19.376 L240.744,19.376 L240.744,32.368 L234.528,32.368 L234.528,19.376 L223.72,19.376 L223.72,13.608 Z M284.144,6.776 L323.96,6.776 L323.96,12.544 L304.472,12.544 L304.472,21.56 L326.648,21.56 L326.648,27.328 L304.472,27.328 L304.472,39.144 C304.472,41.832 306.376,43.232 310.184,43.232 C315.336,43.232 320.656,43.008 326.088,42.56 L326.088,48.44 C320.712,48.776 315.28,48.944 309.904,48.944 C305.76,48.944 302.736,48.272 300.944,46.928 C299.096,45.584 298.2,43.344 298.2,40.208 L298.2,27.328 L282.016,27.328 L282.016,21.56 L298.2,21.56 L298.2,12.544 L284.144,12.544 L284.144,6.776 Z M339.416,6.944 L381.752,6.944 L384.888,9.744 C382.76,14 380.688,17.528 378.728,20.328 C376.152,23.8 373.24,26.824 369.88,29.456 L365.4,25.144 C370.328,21.28 373.912,17.136 376.152,12.712 L339.416,12.712 L339.416,6.944 Z M357.112,16.856 L363.384,16.856 L363.384,24.416 C363.384,30.688 362.152,35.896 359.688,40.04 C357.112,44.296 353.024,47.768 347.368,50.4 L343.448,45.584 C348.376,43.232 351.848,40.432 353.976,37.296 C356.048,34.048 357.112,29.792 357.112,24.416 L357.112,16.856 Z M431.424,3.696 L434.728,9.072 C430.304,10.584 425.656,11.872 420.84,12.936 L420.84,21.896 L440.944,21.896 L440.944,27.664 L420.84,27.664 C420.616,32.816 419.104,37.352 416.248,41.272 C413.56,44.856 409.696,47.936 404.656,50.512 L400.512,45.64 C404.656,43.456 407.904,40.992 410.256,38.248 C412.888,35.112 414.344,31.584 414.568,27.664 L393.848,27.664 L393.848,21.896 L414.568,21.896 L414.568,14.112 C409.528,14.952 404.208,15.568 398.72,15.904 L397.208,10.248 C403.48,9.8 409.584,9.072 415.408,7.952 C420.952,6.832 426.272,5.432 431.424,3.696 Z M451.528,23.968 L494.592,23.968 L494.592,29.736 L451.528,29.736 L451.528,23.968 Z M537.208,22.176 C541.912,27.72 547.456,36.512 553.784,48.552 L548.296,51.576 C547.12,49.336 546,47.264 544.88,45.304 C533.68,46.872 520.24,47.88 504.616,48.384 L504.392,42.728 L509.992,42.504 C513.464,32.984 518.392,19.824 524.888,2.968 L530.88,4.928 C526.736,15.344 522.032,27.776 516.768,42.112 C526.512,41.552 534.912,40.824 541.856,39.984 C541.464,39.368 541.128,38.808 540.792,38.248 C537.656,33.04 534.8,28.84 532.28,25.704 L537.208,22.176 Z M605.976,0 C608.664,2.408 610.736,4.928 612.192,7.504 L608.888,9.912 C607.264,7.112 605.304,4.592 602.952,2.352 L605.976,0 Z M599.536,2.464 C602.056,4.704 604.128,7.28 605.696,10.08 L602.448,12.376 C600.88,9.632 598.864,7.112 596.456,4.816 L599.536,2.464 Z M565.264,12.824 L582.176,12.824 C582.344,9.856 582.456,6.608 582.512,3.08 L588.672,3.08 C588.616,6.72 588.504,9.968 588.392,12.824 L606.592,12.824 L605.752,33.6 C605.528,39.144 604.688,43.064 603.232,45.36 C601.496,48.048 598.528,49.392 594.328,49.392 C591.808,49.392 589.232,49.168 586.656,48.72 L586.656,42.952 C589.512,43.512 592.032,43.792 594.272,43.792 C596.008,43.792 597.352,42.784 598.304,40.824 C599.144,38.976 599.648,36.288 599.816,32.704 L600.376,18.592 L587.944,18.592 C587.776,19.88 587.608,21.056 587.496,22.12 C586.488,28.168 584.584,33.264 581.784,37.464 C578.536,42.168 573.72,46.256 567.392,49.784 L563.304,45.192 C567,43.12 570.08,40.88 572.6,38.528 C575.456,35.784 577.584,32.816 578.984,29.68 C580.104,26.936 581,23.24 581.616,18.592 L565.264,18.592 L565.264,12.824 Z M655.928,3.024 L660.576,7.112 C656.208,11.76 651.112,16.24 645.176,20.496 L645.176,49.896 L638.904,49.896 L638.904,24.696 C632.744,28.504 626.472,31.752 620.088,34.44 L616.896,29.176 C623.84,26.264 630.952,22.4 638.232,17.528 C645.512,12.6 651.392,7.784 655.928,3.024 Z M713.328,3.584 C716.016,5.936 718.088,8.456 719.544,11.088 L716.24,13.496 C714.616,10.64 712.656,8.12 710.304,5.936 L713.328,3.584 Z M707.672,7.504 C710.192,9.744 712.264,12.32 713.832,15.12 L710.584,17.416 C709.016,14.616 707,12.096 704.592,9.856 L707.672,7.504 Z M685.888,3.36 L692.16,3.36 L692.16,20.496 C696.64,21.28 701.12,22.4 705.6,23.912 C709.688,25.256 713.776,26.88 717.92,28.84 L715.232,34.048 C711.536,32.368 707.896,30.912 704.256,29.68 C700.168,28.336 696.136,27.272 692.16,26.544 L692.16,50.512 L685.888,50.512 L685.888,3.36 Z" id="samoa"></path>
        </g>
        <g id="Group-B"></g>
        <g id="Group-D" transform="translate(56.000000, 0.000000)"></g>
    </g>
</svg>