<?xml version="1.0" encoding="UTF-8"?>
<svg width="775px" height="53px" viewBox="0 0 775 53" version="1.1" xmlns="http://www.w3.org/2000/svg" xmlns:xlink="http://www.w3.org/1999/xlink">
    <!-- Generator: Sketch 57.1 (83088) - https://sketch.com -->
    <title>Top-Type</title>
    <desc>Created with Sketch.</desc>
    <g id="Top-Type" stroke="none" stroke-width="1" fill="none" fill-rule="evenodd">
        <g id="Group-A" transform="translate(55.000000, 1.000000)" fill="#005689" fill-rule="nonzero">
            <path d="M26.656,34.048 C20.72,40.32 13.104,45.752 3.808,50.344 L0,45.304 C15.4,38.136 26.32,27.608 32.816,13.72 L5.992,13.72 L5.992,7.952 L37.464,7.952 L41.216,10.416 C38.192,17.696 34.608,24.024 30.576,29.4 C33.992,31.752 37.072,33.992 39.872,36.12 C44.632,39.76 48.384,43.064 51.128,46.088 L46.256,50.12 C43.4,47.096 39.872,43.904 35.616,40.6 C32.872,38.472 29.904,36.288 26.656,34.048 Z M60.928,10.584 L100.744,10.584 L100.744,46.648 L60.256,46.648 L60.256,40.88 L94.472,40.88 L94.472,16.352 L60.928,16.352 L60.928,10.584 Z M133.392,15.904 C134.848,17.976 136.248,20.048 137.536,22.176 C138.768,24.136 139.944,26.152 141.064,28.168 L136.192,31.136 C133.84,26.712 131.264,22.568 128.576,18.704 L133.392,15.904 Z M149.352,17.36 L155.344,18.424 C153.776,26.264 151.2,32.648 147.616,37.576 C143.416,43.176 137.536,47.264 129.976,49.84 L126.56,44.968 C133.504,42.504 138.768,38.92 142.408,34.272 C145.6,30.128 147.896,24.528 149.352,17.36 Z M123.536,18.928 C126.448,22.96 128.968,27.104 131.208,31.248 L126.392,34.272 C123.816,29.68 121.24,25.592 118.608,21.896 L123.536,18.928 Z M181.888,3.36 L188.16,3.36 L188.16,20.496 C192.64,21.28 197.12,22.4 201.6,23.912 C205.688,25.256 209.776,26.88 213.92,28.84 L211.232,34.048 C207.536,32.368 203.896,30.912 200.256,29.68 C196.168,28.336 192.136,27.272 188.16,26.544 L188.16,50.512 L181.888,50.512 L181.888,3.36 Z M233.688,6.328 L265.216,6.328 L265.216,12.096 L233.688,12.096 L233.688,6.328 Z M228.984,18.032 L267.624,18.032 L270.928,20.552 C268.352,28.616 264.992,34.888 260.736,39.256 C255.808,44.24 248.92,47.88 240.016,50.12 L236.88,44.632 C244.16,42.84 249.872,40.208 254.128,36.792 C258.104,33.544 261.184,29.176 263.312,23.8 L228.984,23.8 L228.984,18.032 Z M285.376,5.936 C290.864,8.736 296.8,12.432 303.184,17.08 L299.264,21.84 C292.992,17.36 287.336,13.832 282.296,11.2 L285.376,5.936 Z M322.952,13.776 L328.776,16.016 C324.856,24.92 319.704,32.2 313.264,37.912 C306.32,43.904 297.976,48.104 288.12,50.456 L285.264,44.912 C293.832,42.896 301.448,39.144 308.168,33.544 C314.608,28.056 319.536,21.504 322.952,13.776 Z M377.328,3.584 C380.016,5.936 382.088,8.456 383.544,11.088 L380.24,13.496 C378.616,10.64 376.656,8.12 374.304,5.936 L377.328,3.584 Z M371.672,7.504 C374.192,9.744 376.264,12.32 377.832,15.12 L374.584,17.416 C373.016,14.616 371,12.096 368.592,9.856 L371.672,7.504 Z M349.888,3.36 L356.16,3.36 L356.16,20.496 C360.64,21.28 365.12,22.4 369.6,23.912 C373.688,25.256 377.776,26.88 381.92,28.84 L379.232,34.048 C375.536,32.368 371.896,30.912 368.256,29.68 C364.168,28.336 360.136,27.272 356.16,26.544 L356.16,50.512 L349.888,50.512 L349.888,3.36 Z M431.424,3.696 L434.728,9.072 C430.304,10.584 425.656,11.872 420.84,12.936 L420.84,21.896 L440.944,21.896 L440.944,27.664 L420.84,27.664 C420.616,32.816 419.104,37.352 416.248,41.272 C413.56,44.856 409.696,47.936 404.656,50.512 L400.512,45.64 C404.656,43.456 407.904,40.992 410.256,38.248 C412.888,35.112 414.344,31.584 414.568,27.664 L393.848,27.664 L393.848,21.896 L414.568,21.896 L414.568,14.112 C409.528,14.952 404.208,15.568 398.72,15.904 L397.208,10.248 C403.48,9.8 409.584,9.072 415.408,7.952 C420.952,6.832 426.272,5.432 431.424,3.696 Z M451.528,23.968 L494.592,23.968 L494.592,29.736 L451.528,29.736 L451.528,23.968 Z M537.208,22.176 C541.912,27.72 547.456,36.512 553.784,48.552 L548.296,51.576 C547.12,49.336 546,47.264 544.88,45.304 C533.68,46.872 520.24,47.88 504.616,48.384 L504.392,42.728 L509.992,42.504 C513.464,32.984 518.392,19.824 524.888,2.968 L530.88,4.928 C526.736,15.344 522.032,27.776 516.768,42.112 C526.512,41.552 534.912,40.824 541.856,39.984 C541.464,39.368 541.128,38.808 540.792,38.248 C537.656,33.04 534.8,28.84 532.28,25.704 L537.208,22.176 Z M605.976,0 C608.664,2.408 610.736,4.928 612.192,7.504 L608.888,9.912 C607.264,7.112 605.304,4.592 602.952,2.352 L605.976,0 Z M599.536,2.464 C602.056,4.704 604.128,7.28 605.696,10.08 L602.448,12.376 C600.88,9.632 598.864,7.112 596.456,4.816 L599.536,2.464 Z M565.264,12.824 L582.176,12.824 C582.344,9.856 582.456,6.608 582.512,3.08 L588.672,3.08 C588.616,6.72 588.504,9.968 588.392,12.824 L606.592,12.824 L605.752,33.6 C605.528,39.144 604.688,43.064 603.232,45.36 C601.496,48.048 598.528,49.392 594.328,49.392 C591.808,49.392 589.232,49.168 586.656,48.72 L586.656,42.952 C589.512,43.512 592.032,43.792 594.272,43.792 C596.008,43.792 597.352,42.784 598.304,40.824 C599.144,38.976 599.648,36.288 599.816,32.704 L600.376,18.592 L587.944,18.592 C587.776,19.88 587.608,21.056 587.496,22.12 C586.488,28.168 584.584,33.264 581.784,37.464 C578.536,42.168 573.72,46.256 567.392,49.784 L563.304,45.192 C567,43.12 570.08,40.88 572.6,38.528 C575.456,35.784 577.584,32.816 578.984,29.68 C580.104,26.936 581,23.24 581.616,18.592 L565.264,18.592 L565.264,12.824 Z M655.928,3.024 L660.576,7.112 C656.208,11.76 651.112,16.24 645.176,20.496 L645.176,49.896 L638.904,49.896 L638.904,24.696 C632.744,28.504 626.472,31.752 620.088,34.44 L616.896,29.176 C623.84,26.264 630.952,22.4 638.232,17.528 C645.512,12.6 651.392,7.784 655.928,3.024 Z M713.328,3.584 C716.016,5.936 718.088,8.456 719.544,11.088 L716.24,13.496 C714.616,10.64 712.656,8.12 710.304,5.936 L713.328,3.584 Z M707.672,7.504 C710.192,9.744 712.264,12.32 713.832,15.12 L710.584,17.416 C709.016,14.616 707,12.096 704.592,9.856 L707.672,7.504 Z M685.888,3.36 L692.16,3.36 L692.16,20.496 C696.64,21.28 701.12,22.4 705.6,23.912 C709.688,25.256 713.776,26.88 717.92,28.84 L715.232,34.048 C711.536,32.368 707.896,30.912 704.256,29.68 C700.168,28.336 696.136,27.272 692.16,26.544 L692.16,50.512 L685.888,50.512 L685.888,3.36 Z" id="scotland"></path>
        </g>
        <g id="Group-B"></g>
        <g id="Group-D" transform="translate(56.000000, 0.000000)"></g>
    </g>
</svg>