<?xml version="1.0" encoding="UTF-8"?>
<svg width="775px" height="53px" viewBox="0 0 775 53" version="1.1" xmlns="http://www.w3.org/2000/svg" xmlns:xlink="http://www.w3.org/1999/xlink">
    <!-- Generator: Sketch 57.1 (83088) - https://sketch.com -->
    <title>Top-Type</title>
    <desc>Created with Sketch.</desc>
    <g id="Top-Type" stroke="none" stroke-width="1" fill="none" fill-rule="evenodd">
        <g id="Group-B" fill="#36AA46" fill-rule="nonzero">
            <path d="M167,6.488 L189.792,6.488 C190.016,4.808 190.184,3.128 190.408,1.504 L196.344,2.344 L195.84,6.488 L217.288,6.488 L217.288,11.976 L194.888,11.976 C194.552,13.432 194.272,14.888 193.936,16.288 L214.656,16.288 L214.656,47.088 C214.656,51.344 212.696,53.472 208.776,53.472 L203.568,53.472 L202.056,47.816 L206.872,47.984 C208.216,47.984 208.888,47.2 208.888,45.744 L208.888,21.776 L175.512,21.776 L175.512,53.864 L169.744,53.864 L169.744,16.288 L187.944,16.288 C188.28,14.832 188.56,13.376 188.84,11.976 L167,11.976 L167,6.488 Z M186.824,22.448 C187.888,24.296 188.896,26.424 189.792,28.888 L194.552,28.888 C195.672,26.816 196.624,24.632 197.464,22.28 L202.728,24.184 C201.944,25.92 201.104,27.488 200.208,28.888 L205.304,28.888 L205.304,33.984 L195,33.984 L195,38.24 L206.76,38.24 L206.76,43.336 L195,43.336 L195,52.968 L189.288,52.968 L189.288,43.336 L177.584,43.336 L177.584,38.24 L189.288,38.24 L189.288,33.984 L179.152,33.984 L179.152,28.888 L184.192,28.888 C183.408,27.264 182.568,25.752 181.616,24.352 L186.824,22.448 Z M226.528,7.944 L268.864,7.944 L272,10.744 C269.872,15 267.8,18.528 265.84,21.328 C263.264,24.8 260.352,27.824 256.992,30.456 L252.512,26.144 C257.44,22.28 261.024,18.136 263.264,13.712 L226.528,13.712 L226.528,7.944 Z M244.224,17.856 L250.496,17.856 L250.496,25.416 C250.496,31.688 249.264,36.896 246.8,41.04 C244.224,45.296 240.136,48.768 234.48,51.4 L230.56,46.584 C235.488,44.232 238.96,41.432 241.088,38.296 C243.16,35.048 244.224,30.792 244.224,25.416 L244.224,17.856 Z M281.016,9.736 L320.888,9.736 L324.024,12.144 C321.784,21.384 317.92,29.28 312.544,35.832 C307.056,42.44 299.888,47.704 291.152,51.512 L287.12,46.696 C294.288,43.56 300.224,39.584 305.04,34.88 C310.472,29.448 314.392,23.008 316.744,15.504 L281.016,15.504 L281.016,9.736 Z M370.504,6.432 L376.776,6.432 L376.776,24.8 C376.776,31.856 374.928,37.568 371.344,42.048 C367.648,46.584 362.048,49.776 354.544,51.624 L351.632,46.08 C358.52,44.456 363.504,41.712 366.528,37.848 C369.16,34.432 370.504,29.896 370.504,24.296 L370.504,6.432 Z M343.512,7.608 L349.784,7.608 L349.784,34.768 L343.512,34.768 L343.512,7.608 Z M396.376,13.824 L413.288,13.824 C413.456,10.856 413.568,7.608 413.624,4.08 L419.784,4.08 C419.728,7.72 419.616,10.968 419.504,13.824 L437.704,13.824 L436.864,34.6 C436.64,40.144 435.8,44.064 434.344,46.36 C432.608,49.048 429.64,50.392 425.44,50.392 C422.92,50.392 420.344,50.168 417.768,49.72 L417.768,43.952 C420.624,44.512 423.144,44.792 425.384,44.792 C427.12,44.792 428.464,43.784 429.36,41.88 C430.256,40.032 430.76,37.288 430.928,33.704 L431.488,19.592 L419.056,19.592 C418.888,20.88 418.72,22.056 418.608,23.12 C417.6,29.168 415.696,34.264 412.896,38.464 C409.648,43.168 404.832,47.256 398.504,50.784 L394.416,46.192 C398.112,44.12 401.192,41.88 403.712,39.528 C406.568,36.784 408.696,33.816 410.096,30.68 C411.216,27.936 412.112,24.24 412.728,19.592 L396.376,19.592 L396.376,13.824 Z M486.536,4.696 L489.84,10.072 C485.416,11.584 480.768,12.872 475.952,13.936 L475.952,22.896 L496.056,22.896 L496.056,28.664 L475.952,28.664 C475.728,33.816 474.216,38.352 471.36,42.272 C468.672,45.856 464.808,48.936 459.768,51.512 L455.624,46.64 C459.768,44.456 463.016,41.992 465.368,39.248 C468,36.112 469.456,32.584 469.68,28.664 L448.96,28.664 L448.96,22.896 L469.68,22.896 L469.68,15.112 C464.64,15.952 459.32,16.568 453.832,16.904 L452.32,11.248 C458.592,10.8 464.696,10.072 470.52,8.952 C476.064,7.832 481.384,6.432 486.536,4.696 Z M506.64,24.968 L549.704,24.968 L549.704,30.736 L506.64,30.736 L506.64,24.968 Z M592.32,23.176 C597.024,28.72 602.568,37.512 608.896,49.552 L603.408,52.576 C602.232,50.336 601.112,48.264 599.992,46.304 C588.792,47.872 575.352,48.88 559.728,49.384 L559.504,43.728 L565.104,43.504 C568.576,33.984 573.504,20.824 580,3.968 L585.992,5.928 C581.848,16.344 577.144,28.776 571.88,43.112 C581.624,42.552 590.024,41.824 596.968,40.984 C596.576,40.368 596.24,39.808 595.904,39.248 C592.768,34.04 589.912,29.84 587.392,26.704 L592.32,23.176 Z M661.088,1 C663.776,3.408 665.848,5.928 667.304,8.504 L664,10.912 C662.376,8.112 660.416,5.592 658.064,3.352 L661.088,1 Z M654.648,3.464 C657.168,5.704 659.24,8.28 660.808,11.08 L657.56,13.376 C655.992,10.632 653.976,8.112 651.568,5.816 L654.648,3.464 Z M620.376,13.824 L637.288,13.824 C637.456,10.856 637.568,7.608 637.624,4.08 L643.784,4.08 C643.728,7.72 643.616,10.968 643.504,13.824 L661.704,13.824 L660.864,34.6 C660.64,40.144 659.8,44.064 658.344,46.36 C656.608,49.048 653.64,50.392 649.44,50.392 C646.92,50.392 644.344,50.168 641.768,49.72 L641.768,43.952 C644.624,44.512 647.144,44.792 649.384,44.792 C651.12,44.792 652.464,43.784 653.416,41.824 C654.256,39.976 654.76,37.288 654.928,33.704 L655.488,19.592 L643.056,19.592 C642.888,20.88 642.72,22.056 642.608,23.12 C641.6,29.168 639.696,34.264 636.896,38.464 C633.648,43.168 628.832,47.256 622.504,50.784 L618.416,46.192 C622.112,44.12 625.192,41.88 627.712,39.528 C630.568,36.784 632.696,33.816 634.096,30.68 C635.216,27.936 636.112,24.24 636.728,19.592 L620.376,19.592 L620.376,13.824 Z M711.04,4.024 L715.688,8.112 C711.32,12.76 706.224,17.24 700.288,21.496 L700.288,50.896 L694.016,50.896 L694.016,25.696 C687.856,29.504 681.584,32.752 675.2,35.44 L672.008,30.176 C678.952,27.264 686.064,23.4 693.344,18.528 C700.624,13.6 706.504,8.784 711.04,4.024 Z M768.44,4.584 C771.128,6.936 773.2,9.456 774.656,12.088 L771.352,14.496 C769.728,11.64 767.768,9.12 765.416,6.936 L768.44,4.584 Z M762.784,8.504 C765.304,10.744 767.376,13.32 768.944,16.12 L765.696,18.416 C764.128,15.616 762.112,13.096 759.704,10.856 L762.784,8.504 Z M741,4.36 L747.272,4.36 L747.272,21.496 C751.752,22.28 756.232,23.4 760.712,24.912 C764.8,26.256 768.888,27.88 773.032,29.84 L770.344,35.048 C766.648,33.368 763.008,31.912 759.368,30.68 C755.28,29.336 751.248,28.272 747.272,27.544 L747.272,51.512 L741,51.512 L741,4.36 Z" id="south-africa"></path>
        </g>
        <g id="Group-D" transform="translate(56.000000, 0.000000)"></g>
    </g>
</svg>