<?xml version="1.0" encoding="UTF-8"?>
<svg width="775px" height="53px" viewBox="0 0 775 53" version="1.1" xmlns="http://www.w3.org/2000/svg" xmlns:xlink="http://www.w3.org/1999/xlink">
    <!-- Generator: Sketch 57.1 (83088) - https://sketch.com -->
    <title>Top-Type</title>
    <desc>Created with Sketch.</desc>
    <g id="Top-Type" stroke="none" stroke-width="1" fill="none" fill-rule="evenodd">
        <g id="Group-D" transform="translate(56.000000, 0.000000)" fill="#6EBCF5" fill-rule="nonzero">
            <path d="M132.36,3.592 L138.632,3.592 L138.632,13.112 L152.688,13.112 L156.664,15.296 C156.216,24.256 153.92,31.592 149.888,37.304 C145.576,43.24 138.856,47.944 129.784,51.416 L126.312,46.264 C133.984,43.52 139.752,39.824 143.56,35.232 C147.2,30.864 149.328,25.376 149.888,18.824 L121.608,18.824 L121.608,30.696 L115.336,30.696 L115.336,13.112 L132.36,13.112 L132.36,3.592 Z M193.792,6.504 L200.064,6.504 L200.064,41.728 C205.608,37.528 210.368,32.432 214.4,26.496 L219.44,30.024 C216.696,33.944 213.392,37.752 209.584,41.336 C205.44,45.144 201.408,48.056 197.6,49.96 L193.792,47.888 L193.792,6.504 Z M177.832,7.736 L184.104,7.736 L184.104,24.984 C184.104,31.312 183.208,36.408 181.528,40.216 C179.624,44.304 176.32,48.056 171.56,51.416 L167.584,46.768 C171.504,43.856 174.248,40.72 175.76,37.472 C177.104,34.448 177.832,30.248 177.832,24.984 L177.832,7.736 Z M269.616,0.232 C272.304,2.64 274.376,5.16 275.832,7.736 L272.528,10.144 C270.904,7.344 268.944,4.824 266.592,2.584 L269.616,0.232 Z M261.272,0.344 C263.792,2.584 265.864,5.16 267.432,7.96 L264.184,10.256 C262.616,7.512 260.6,4.992 258.192,2.696 L261.272,0.344 Z M242.624,3.704 L248.392,5.552 C247.72,7.4 246.992,9.192 246.208,10.872 L263.904,10.872 L267.544,12.776 C265.864,22.24 262.392,30.192 257.016,36.688 C251.64,43.016 244.528,47.888 235.624,51.36 L232.32,46.096 C239.544,43.408 245.424,39.824 250.016,35.344 C255.168,30.304 258.64,24.088 260.432,16.696 L243.128,16.696 C242.344,17.872 241.616,18.992 240.832,20.056 C237.864,23.976 234.056,27.784 229.352,31.368 L225.04,27.28 C229.296,23.92 232.936,20.336 235.848,16.528 C238.816,12.496 241.056,8.24 242.624,3.704 Z M282.384,7.904 L324.72,7.904 L327.856,10.704 C325.728,14.96 323.656,18.488 321.696,21.288 C319.12,24.76 316.208,27.784 312.848,30.416 L308.368,26.104 C313.296,22.24 316.88,18.096 319.12,13.672 L282.384,13.672 L282.384,7.904 Z M300.08,17.816 L306.352,17.816 L306.352,25.376 C306.352,31.648 305.12,36.856 302.656,41 C300.08,45.256 295.992,48.728 290.336,51.36 L286.416,46.544 C291.344,44.192 294.816,41.392 296.944,38.256 C299.016,35.008 300.08,30.752 300.08,25.376 L300.08,17.816 Z M374.896,3.984 L379.544,8.072 C375.176,12.72 370.08,17.2 364.144,21.456 L364.144,50.856 L357.872,50.856 L357.872,25.656 C351.712,29.464 345.44,32.712 339.056,35.4 L335.864,30.136 C342.808,27.224 349.92,23.36 357.2,18.488 C364.48,13.56 370.36,8.744 374.896,3.984 Z M430.392,4.656 L433.696,10.032 C429.272,11.544 424.624,12.832 419.808,13.896 L419.808,22.856 L439.912,22.856 L439.912,28.624 L419.808,28.624 C419.584,33.776 418.072,38.312 415.216,42.232 C412.528,45.816 408.664,48.896 403.624,51.472 L399.48,46.6 C403.624,44.416 406.872,41.952 409.224,39.208 C411.856,36.072 413.312,32.544 413.536,28.624 L392.816,28.624 L392.816,22.856 L413.536,22.856 L413.536,15.072 C408.496,15.912 403.176,16.528 397.688,16.864 L396.176,11.208 C402.448,10.76 408.552,10.032 414.376,8.912 C419.92,7.792 425.24,6.392 430.392,4.656 Z M450.496,24.928 L493.56,24.928 L493.56,30.696 L450.496,30.696 L450.496,24.928 Z M536.176,23.136 C540.88,28.68 546.424,37.472 552.752,49.512 L547.264,52.536 C546.088,50.296 544.968,48.224 543.848,46.264 C532.648,47.832 519.208,48.84 503.584,49.344 L503.36,43.688 L508.96,43.464 C512.432,33.944 517.36,20.784 523.856,3.928 L529.848,5.888 C525.704,16.304 521,28.736 515.736,43.072 C525.48,42.512 533.88,41.784 540.824,40.944 C540.432,40.328 540.096,39.768 539.76,39.208 C536.624,34 533.768,29.8 531.248,26.664 L536.176,23.136 Z M604.944,0.96 C607.632,3.368 609.704,5.888 611.16,8.464 L607.856,10.872 C606.232,8.072 604.272,5.552 601.92,3.312 L604.944,0.96 Z M598.504,3.424 C601.024,5.664 603.096,8.24 604.664,11.04 L601.416,13.336 C599.848,10.592 597.832,8.072 595.424,5.776 L598.504,3.424 Z M564.232,13.784 L581.144,13.784 C581.312,10.816 581.424,7.568 581.48,4.04 L587.64,4.04 C587.584,7.68 587.472,10.928 587.36,13.784 L605.56,13.784 L604.72,34.56 C604.496,40.104 603.656,44.024 602.2,46.32 C600.464,49.008 597.496,50.352 593.296,50.352 C590.776,50.352 588.2,50.128 585.624,49.68 L585.624,43.912 C588.48,44.472 591,44.752 593.24,44.752 C594.976,44.752 596.32,43.744 597.272,41.784 C598.112,39.936 598.616,37.248 598.784,33.664 L599.344,19.552 L586.912,19.552 C586.744,20.84 586.576,22.016 586.464,23.08 C585.456,29.128 583.552,34.224 580.752,38.424 C577.504,43.128 572.688,47.216 566.36,50.744 L562.272,46.152 C565.968,44.08 569.048,41.84 571.568,39.488 C574.424,36.744 576.552,33.776 577.952,30.64 C579.072,27.896 579.968,24.2 580.584,19.552 L564.232,19.552 L564.232,13.784 Z M654.896,3.984 L659.544,8.072 C655.176,12.72 650.08,17.2 644.144,21.456 L644.144,50.856 L637.872,50.856 L637.872,25.656 C631.712,29.464 625.44,32.712 619.056,35.4 L615.864,30.136 C622.808,27.224 629.92,23.36 637.2,18.488 C644.48,13.56 650.36,8.744 654.896,3.984 Z M712.296,4.544 C714.984,6.896 717.056,9.416 718.512,12.048 L715.208,14.456 C713.584,11.6 711.624,9.08 709.272,6.896 L712.296,4.544 Z M706.64,8.464 C709.16,10.704 711.232,13.28 712.8,16.08 L709.552,18.376 C707.984,15.576 705.968,13.056 703.56,10.816 L706.64,8.464 Z M684.856,4.32 L691.128,4.32 L691.128,21.456 C695.608,22.24 700.088,23.36 704.568,24.872 C708.656,26.216 712.744,27.84 716.888,29.8 L714.2,35.008 C710.504,33.328 706.864,31.872 703.224,30.64 C699.136,29.296 695.104,28.232 691.128,27.504 L691.128,51.472 L684.856,51.472 L684.856,4.32 Z" id="uruguay"></path>
        </g>
    </g>
</svg>