<?xml version="1.0" encoding="UTF-8"?>
<svg width="775px" height="53px" viewBox="0 0 775 53" version="1.1" xmlns="http://www.w3.org/2000/svg" xmlns:xlink="http://www.w3.org/1999/xlink">
    <!-- Generator: Sketch 57.1 (83088) - https://sketch.com -->
    <title>Top-Type</title>
    <desc>Created with Sketch.</desc>
    <g id="Top-Type" stroke="none" stroke-width="1" fill="none" fill-rule="evenodd">
        <g id="Group-C" transform="translate(108.000000, -11.000000)" fill="#005689" fill-rule="nonzero">
            <path d="M118.384,18.904 L160.72,18.904 L163.856,21.704 C161.728,25.96 159.656,29.488 157.696,32.288 C155.12,35.76 152.208,38.784 148.848,41.416 L144.368,37.104 C149.296,33.24 152.88,29.096 155.12,24.672 L118.384,24.672 L118.384,18.904 Z M136.08,28.816 L142.352,28.816 L142.352,36.376 C142.352,42.648 141.12,47.856 138.656,52 C136.08,56.256 131.992,59.728 126.336,62.36 L122.416,57.544 C127.344,55.192 130.816,52.392 132.944,49.256 C135.016,46.008 136.08,41.752 136.08,36.376 L136.08,28.816 Z M182.224,25.624 C187.88,28.032 193.312,30.888 198.576,34.136 C201.376,28.928 203.784,22.936 205.744,16.16 L212.016,17.672 C209.888,25.12 207.2,31.784 203.952,37.608 C209.608,41.528 215.04,45.952 220.192,50.88 L215.88,55.416 C210.84,50.712 205.744,46.568 200.592,42.984 L199.92,43.88 C194.096,51.944 186.816,57.992 178.08,62.024 L174.048,57.208 C182.392,53.4 189.28,47.744 194.712,40.24 L195.272,39.456 C190.008,36.152 184.744,33.352 179.368,31.056 L182.224,25.624 Z M262.36,17.392 L268.632,17.392 L268.632,35.76 C268.632,42.816 266.784,48.528 263.2,53.008 C259.504,57.544 253.904,60.736 246.4,62.584 L243.488,57.04 C250.376,55.416 255.36,52.672 258.384,48.808 C261.016,45.392 262.36,40.856 262.36,35.256 L262.36,17.392 Z M235.368,18.568 L241.64,18.568 L241.64,45.728 L235.368,45.728 L235.368,18.568 Z M288.232,24.784 L305.144,24.784 C305.312,21.816 305.424,18.568 305.48,15.04 L311.64,15.04 C311.584,18.68 311.472,21.928 311.36,24.784 L329.56,24.784 L328.72,45.56 C328.496,51.104 327.656,55.024 326.2,57.32 C324.464,60.008 321.496,61.352 317.296,61.352 C314.776,61.352 312.2,61.128 309.624,60.68 L309.624,54.912 C312.48,55.472 315,55.752 317.24,55.752 C318.976,55.752 320.32,54.744 321.216,52.84 C322.112,50.992 322.616,48.248 322.784,44.664 L323.344,30.552 L310.912,30.552 C310.744,31.84 310.576,33.016 310.464,34.08 C309.456,40.128 307.552,45.224 304.752,49.424 C301.504,54.128 296.688,58.216 290.36,61.744 L286.272,57.152 C289.968,55.08 293.048,52.84 295.568,50.488 C298.424,47.744 300.552,44.776 301.952,41.64 C303.072,38.896 303.968,35.2 304.584,30.552 L288.232,30.552 L288.232,24.784 Z M378.392,15.656 L381.696,21.032 C377.272,22.544 372.624,23.832 367.808,24.896 L367.808,33.856 L387.912,33.856 L387.912,39.624 L367.808,39.624 C367.584,44.776 366.072,49.312 363.216,53.232 C360.528,56.816 356.664,59.896 351.624,62.472 L347.48,57.6 C351.624,55.416 354.872,52.952 357.224,50.208 C359.856,47.072 361.312,43.544 361.536,39.624 L340.816,39.624 L340.816,33.856 L361.536,33.856 L361.536,26.072 C356.496,26.912 351.176,27.528 345.688,27.864 L344.176,22.208 C350.448,21.76 356.552,21.032 362.376,19.912 C367.92,18.792 373.24,17.392 378.392,15.656 Z M398.496,35.928 L441.56,35.928 L441.56,41.696 L398.496,41.696 L398.496,35.928 Z M484.176,34.136 C488.88,39.68 494.424,48.472 500.752,60.512 L495.264,63.536 C494.088,61.296 492.968,59.224 491.848,57.264 C480.648,58.832 467.208,59.84 451.584,60.344 L451.36,54.688 L456.96,54.464 C460.432,44.944 465.36,31.784 471.856,14.928 L477.848,16.888 C473.704,27.304 469,39.736 463.736,54.072 C473.48,53.512 481.88,52.784 488.824,51.944 C488.432,51.328 488.096,50.768 487.76,50.208 C484.624,45 481.768,40.8 479.248,37.664 L484.176,34.136 Z M552.944,11.96 C555.632,14.368 557.704,16.888 559.16,19.464 L555.856,21.872 C554.232,19.072 552.272,16.552 549.92,14.312 L552.944,11.96 Z M546.504,14.424 C549.024,16.664 551.096,19.24 552.664,22.04 L549.416,24.336 C547.848,21.592 545.832,19.072 543.424,16.776 L546.504,14.424 Z M512.232,24.784 L529.144,24.784 C529.312,21.816 529.424,18.568 529.48,15.04 L535.64,15.04 C535.584,18.68 535.472,21.928 535.36,24.784 L553.56,24.784 L552.72,45.56 C552.496,51.104 551.656,55.024 550.2,57.32 C548.464,60.008 545.496,61.352 541.296,61.352 C538.776,61.352 536.2,61.128 533.624,60.68 L533.624,54.912 C536.48,55.472 539,55.752 541.24,55.752 C542.976,55.752 544.32,54.744 545.272,52.784 C546.112,50.936 546.616,48.248 546.784,44.664 L547.344,30.552 L534.912,30.552 C534.744,31.84 534.576,33.016 534.464,34.08 C533.456,40.128 531.552,45.224 528.752,49.424 C525.504,54.128 520.688,58.216 514.36,61.744 L510.272,57.152 C513.968,55.08 517.048,52.84 519.568,50.488 C522.424,47.744 524.552,44.776 525.952,41.64 C527.072,38.896 527.968,35.2 528.584,30.552 L512.232,30.552 L512.232,24.784 Z M602.896,14.984 L607.544,19.072 C603.176,23.72 598.08,28.2 592.144,32.456 L592.144,61.856 L585.872,61.856 L585.872,36.656 C579.712,40.464 573.44,43.712 567.056,46.4 L563.864,41.136 C570.808,38.224 577.92,34.36 585.2,29.488 C592.48,24.56 598.36,19.744 602.896,14.984 Z M660.296,15.544 C662.984,17.896 665.056,20.416 666.512,23.048 L663.208,25.456 C661.584,22.6 659.624,20.08 657.272,17.896 L660.296,15.544 Z M654.64,19.464 C657.16,21.704 659.232,24.28 660.8,27.08 L657.552,29.376 C655.984,26.576 653.968,24.056 651.56,21.816 L654.64,19.464 Z M632.856,15.32 L639.128,15.32 L639.128,32.456 C643.608,33.24 648.088,34.36 652.568,35.872 C656.656,37.216 660.744,38.84 664.888,40.8 L662.2,46.008 C658.504,44.328 654.864,42.872 651.224,41.64 C647.136,40.296 643.104,39.232 639.128,38.504 L639.128,62.472 L632.856,62.472 L632.856,15.32 Z" id="usa"></path>
        </g>
        <g id="Group-D" transform="translate(56.000000, 0.000000)"></g>
    </g>
</svg>