<?xml version="1.0" encoding="UTF-8"?>
<svg width="775px" height="53px" viewBox="0 0 775 53" version="1.1" xmlns="http://www.w3.org/2000/svg" xmlns:xlink="http://www.w3.org/1999/xlink">
    <!-- Generator: Sketch 57.1 (83088) - https://sketch.com -->
    <title>Top-Type</title>
    <desc>Created with Sketch.</desc>
    <g id="Top-Type" stroke="none" stroke-width="1" fill="none" fill-rule="evenodd">
        <g id="Group-D" transform="translate(56.000000, 0.000000)" fill="#FF4E36" fill-rule="nonzero">
            <path d="M132.36,3.592 L138.632,3.592 L138.632,13.112 L152.688,13.112 L156.664,15.296 C156.216,24.256 153.92,31.592 149.888,37.304 C145.576,43.24 138.856,47.944 129.784,51.416 L126.312,46.264 C133.984,43.52 139.752,39.824 143.56,35.232 C147.2,30.864 149.328,25.376 149.888,18.824 L121.608,18.824 L121.608,30.696 L115.336,30.696 L115.336,13.112 L132.36,13.112 L132.36,3.592 Z M176.824,20.896 L207.288,20.896 L207.288,26.272 L195.024,26.272 L195.024,42.792 L210.144,42.792 L210.144,48.168 L173.912,48.168 L173.912,42.792 L189.032,42.792 L189.032,26.272 L176.824,26.272 L176.824,20.896 Z M226.496,24.928 L269.56,24.928 L269.56,30.696 L226.496,30.696 L226.496,24.928 Z M305.792,6.504 L312.064,6.504 L312.064,41.728 C317.608,37.528 322.368,32.432 326.4,26.496 L331.44,30.024 C328.696,33.944 325.392,37.752 321.584,41.336 C317.44,45.144 313.408,48.056 309.6,49.96 L305.792,47.888 L305.792,6.504 Z M289.832,7.736 L296.104,7.736 L296.104,24.984 C296.104,31.312 295.208,36.408 293.528,40.216 C291.624,44.304 288.32,48.056 283.56,51.416 L279.584,46.768 C283.504,43.856 286.248,40.72 287.76,37.472 C289.104,34.448 289.832,30.248 289.832,24.984 L289.832,7.736 Z M381.616,0.344 C384.304,2.752 386.376,5.272 387.832,7.848 L384.528,10.256 C382.904,7.456 380.944,4.936 378.592,2.696 L381.616,0.344 Z M376.52,4.488 C379.04,6.728 381.112,9.304 382.68,12.104 L379.432,14.4 C377.864,11.656 375.848,9.136 373.44,6.84 L376.52,4.488 Z M361.624,35.008 C355.688,41.28 348.072,46.712 338.776,51.304 L334.968,46.264 C350.368,39.096 361.288,28.568 367.784,14.68 L340.96,14.68 L340.96,8.912 L372.432,8.912 L376.184,11.376 C373.16,18.656 369.576,24.984 365.544,30.36 C368.96,32.712 372.04,34.952 374.84,37.08 C379.6,40.72 383.352,44.024 386.096,47.048 L381.224,51.08 C378.368,48.056 374.84,44.864 370.584,41.56 C367.84,39.432 364.872,37.248 361.624,35.008 Z M430.392,4.656 L433.696,10.032 C429.272,11.544 424.624,12.832 419.808,13.896 L419.808,22.856 L439.912,22.856 L439.912,28.624 L419.808,28.624 C419.584,33.776 418.072,38.312 415.216,42.232 C412.528,45.816 408.664,48.896 403.624,51.472 L399.48,46.6 C403.624,44.416 406.872,41.952 409.224,39.208 C411.856,36.072 413.312,32.544 413.536,28.624 L392.816,28.624 L392.816,22.856 L413.536,22.856 L413.536,15.072 C408.496,15.912 403.176,16.528 397.688,16.864 L396.176,11.208 C402.448,10.76 408.552,10.032 414.376,8.912 C419.92,7.792 425.24,6.392 430.392,4.656 Z M450.496,24.928 L493.56,24.928 L493.56,30.696 L450.496,30.696 L450.496,24.928 Z M536.176,23.136 C540.88,28.68 546.424,37.472 552.752,49.512 L547.264,52.536 C546.088,50.296 544.968,48.224 543.848,46.264 C532.648,47.832 519.208,48.84 503.584,49.344 L503.36,43.688 L508.96,43.464 C512.432,33.944 517.36,20.784 523.856,3.928 L529.848,5.888 C525.704,16.304 521,28.736 515.736,43.072 C525.48,42.512 533.88,41.784 540.824,40.944 C540.432,40.328 540.096,39.768 539.76,39.208 C536.624,34 533.768,29.8 531.248,26.664 L536.176,23.136 Z M604.944,0.96 C607.632,3.368 609.704,5.888 611.16,8.464 L607.856,10.872 C606.232,8.072 604.272,5.552 601.92,3.312 L604.944,0.96 Z M598.504,3.424 C601.024,5.664 603.096,8.24 604.664,11.04 L601.416,13.336 C599.848,10.592 597.832,8.072 595.424,5.776 L598.504,3.424 Z M564.232,13.784 L581.144,13.784 C581.312,10.816 581.424,7.568 581.48,4.04 L587.64,4.04 C587.584,7.68 587.472,10.928 587.36,13.784 L605.56,13.784 L604.72,34.56 C604.496,40.104 603.656,44.024 602.2,46.32 C600.464,49.008 597.496,50.352 593.296,50.352 C590.776,50.352 588.2,50.128 585.624,49.68 L585.624,43.912 C588.48,44.472 591,44.752 593.24,44.752 C594.976,44.752 596.32,43.744 597.272,41.784 C598.112,39.936 598.616,37.248 598.784,33.664 L599.344,19.552 L586.912,19.552 C586.744,20.84 586.576,22.016 586.464,23.08 C585.456,29.128 583.552,34.224 580.752,38.424 C577.504,43.128 572.688,47.216 566.36,50.744 L562.272,46.152 C565.968,44.08 569.048,41.84 571.568,39.488 C574.424,36.744 576.552,33.776 577.952,30.64 C579.072,27.896 579.968,24.2 580.584,19.552 L564.232,19.552 L564.232,13.784 Z M654.896,3.984 L659.544,8.072 C655.176,12.72 650.08,17.2 644.144,21.456 L644.144,50.856 L637.872,50.856 L637.872,25.656 C631.712,29.464 625.44,32.712 619.056,35.4 L615.864,30.136 C622.808,27.224 629.92,23.36 637.2,18.488 C644.48,13.56 650.36,8.744 654.896,3.984 Z M712.296,4.544 C714.984,6.896 717.056,9.416 718.512,12.048 L715.208,14.456 C713.584,11.6 711.624,9.08 709.272,6.896 L712.296,4.544 Z M706.64,8.464 C709.16,10.704 711.232,13.28 712.8,16.08 L709.552,18.376 C707.984,15.576 705.968,13.056 703.56,10.816 L706.64,8.464 Z M684.856,4.32 L691.128,4.32 L691.128,21.456 C695.608,22.24 700.088,23.36 704.568,24.872 C708.656,26.216 712.744,27.84 716.888,29.8 L714.2,35.008 C710.504,33.328 706.864,31.872 703.224,30.64 C699.136,29.296 695.104,28.232 691.128,27.504 L691.128,51.472 L684.856,51.472 L684.856,4.32 Z" id="wales"></path>
        </g>
    </g>
</svg>